<?xml version="1.0" encoding="UTF-8"?>
<svg version="1.1" xmlns="http://www.w3.org/2000/svg" width="100%" height="100%" viewBox="0 0 512 512">
<path d="M0 0 C0.1854029 10.34404181 0.32752729 20.68768818 0.41449738 31.0330534 C0.45624083 35.8370045 0.51285078 40.6398186 0.60351562 45.44311523 C0.6904762 50.07920801 0.73828048 54.71420783 0.75901794 59.35105324 C0.77379424 61.11943588 0.80265119 62.88775898 0.84584045 64.65567589 C1.17080433 78.50949347 1.17080433 78.50949347 -1.66998291 82.12599182 C-3.75633531 83.45573561 -5.64877274 84.25421967 -8 85 C-9.24668457 85.73198608 -9.24668457 85.73198608 -10.51855469 86.47875977 C-11.22915039 86.87893311 -11.93974609 87.27910645 -12.671875 87.69140625 C-13.49026855 88.15466309 -14.30866211 88.61791992 -15.15185547 89.09521484 C-16.00924316 89.57941895 -16.86663086 90.06362305 -17.75 90.5625 C-33.17053589 99.32731436 -48.30120237 108.56175811 -63.4440918 117.79516602 C-70.31624765 121.9832901 -77.2098727 126.13393546 -84.11621094 130.26538086 C-90.59261384 134.14427909 -97.04306684 138.06486509 -103.49075317 141.99127197 C-104.07130463 142.34477722 -104.65185608 142.69828247 -105.25 143.0625 C-105.83079315 143.41616638 -106.4115863 143.76983276 -107.00997925 144.13421631 C-117.57440308 150.56321885 -128.20287602 156.88067146 -138.84631348 163.17776489 C-146.52370614 167.7219593 -154.17373124 172.29305845 -161.70141602 177.08251953 C-168.93465956 181.64955474 -176.32475367 185.95893735 -183.6875 190.3125 C-193.54259604 196.14049365 -203.35306639 202.02136155 -213.06494141 208.08618164 C-220.51320403 212.7262617 -228.032529 217.24439283 -235.5625 221.75 C-245.43471632 227.65810721 -255.29377512 233.58639234 -265.125 239.5625 C-265.69566193 239.90932831 -266.26632385 240.25615662 -266.85427856 240.61349487 C-270.31613003 242.71770238 -273.7773431 244.82295817 -277.23840332 246.9284668 C-282.0605263 249.86163813 -286.88370176 252.79307733 -291.70748901 255.72351074 C-292.89857258 256.44711981 -294.0895927 257.17083332 -295.2805481 257.89465332 C-302.69005561 262.39739253 -310.11678975 266.86987812 -317.5625 271.3125 C-325.14845244 275.84037997 -332.63780016 280.5095133 -340.08813477 285.25708008 C-341.20853149 285.97093872 -341.20853149 285.97093872 -342.3515625 286.69921875 C-343.00979004 287.12033936 -343.66801758 287.54145996 -344.34619141 287.9753418 C-350.07262199 291.52329414 -358.43878535 290.90631889 -365 290 C-367.43423192 288.87618935 -368.60036711 287.80995313 -370.36328125 285.8203125 C-372.37245936 283.58576119 -374.58958353 282.08070574 -377.0625 280.375 C-382.15913945 276.71962334 -386.87235271 272.74810467 -391.59594727 268.63427734 C-395.63839561 265.12793217 -399.76797505 261.77432262 -404 258.5 C-409.39776336 254.31965263 -414.59556807 249.9560804 -419.75 245.48046875 C-423.74367368 242.03057653 -427.82811252 238.73140754 -432 235.5 C-437.48764822 231.24884234 -442.78223967 226.8157984 -448.02905273 222.27172852 C-452.08995283 218.76013997 -456.23383424 215.38008085 -460.44921875 212.0546875 C-463.47661493 209.61608047 -466.42307986 207.09141437 -469.375 204.5625 C-474.66806675 200.03604247 -480.12497362 195.8059749 -485.734375 191.6796875 C-488 190 -488 190 -489 189 C-489.09507821 186.41360962 -489.12556376 183.8540144 -489.11352539 181.26733398 C-489.11367142 180.4576416 -489.11381744 179.64794922 -489.1139679 178.8137207 C-489.11326854 176.12448492 -489.1054751 173.43531751 -489.09765625 170.74609375 C-489.09579215 168.88664284 -489.09436821 167.02719144 -489.09336853 165.16773987 C-489.08954271 160.26370904 -489.07971188 155.35970764 -489.06866455 150.45568848 C-489.05845181 145.45548908 -489.05387121 140.45528494 -489.04882812 135.45507812 C-489.03808967 125.63670579 -489.02101248 115.81835534 -489 106 C-481.97745542 108.75049663 -477.50920964 112.22085115 -472.375 117.75 C-470.90383382 119.25659086 -470.90383382 119.25659086 -468 120 C-466.64426252 121.31054623 -465.31387169 122.64748503 -464 124 C-462.34431791 125.34694929 -460.67657023 126.67914126 -459 128 C-451.29482564 134.11199921 -443.6982756 140.34923752 -436.11328125 146.609375 C-432.83532249 149.3142327 -429.54587 152.00447845 -426.25 154.6875 C-422.90879536 157.41388267 -419.60580103 160.17874871 -416.32543945 162.97753906 C-411.32154602 167.24677234 -406.25943237 171.40494728 -401.0625 175.4375 C-395.53011852 179.730344 -390.19476992 184.21106986 -384.90307617 188.79614258 C-381.12285478 192.06342933 -377.27369786 195.19121694 -373.28515625 198.203125 C-371.48135734 199.62149679 -369.72843333 201.10455986 -367.99609375 202.609375 C-367.46902832 203.06618652 -366.94196289 203.52299805 -366.39892578 203.99365234 C-364.88997883 205.3075369 -363.39193928 206.63391726 -361.89453125 207.9609375 C-358.69025205 210.21820301 -356.90461524 210.9439285 -353 211 C-350.13598976 210.03861562 -350.13598976 210.03861562 -347.3125 208.3125 C-346.75473877 207.99635742 -346.19697754 207.68021484 -345.62231445 207.35449219 C-340.08292305 204.16339447 -334.71301799 200.68852619 -329.33154297 197.24047852 C-321.47155363 192.23088986 -313.46295536 187.4874602 -305.4375 182.75 C-295.48919308 176.87378594 -285.57861617 170.9501414 -275.75 164.875 C-274.70207275 164.22732666 -273.65414551 163.57965332 -272.57446289 162.91235352 C-271.52637451 162.26451904 -270.47828613 161.61668457 -269.3984375 160.94921875 C-252.02972579 150.21457538 -234.53355002 139.69776027 -216.96466064 129.29483032 C-204.06857603 121.65713089 -191.24658273 113.90246882 -178.44873047 106.1015625 C-172.57335264 102.52050708 -166.69325734 98.94721233 -160.8125 95.375 C-160.22980347 95.02097107 -159.64710693 94.66694214 -159.04675293 94.30218506 C-149.85964087 88.72149434 -140.64822925 83.18210076 -131.42626953 77.65917969 C-120.10427531 70.87348708 -108.82645528 64.0154694 -97.54833984 57.15722656 C-91.11902261 53.24791548 -84.68610911 49.34452343 -78.25384521 45.44006348 C-76.50644712 44.37935039 -74.75907327 43.31859737 -73.01171875 42.2578125 C-72.434823 41.90759033 -71.85792725 41.55736816 -71.2635498 41.1965332 C-67.73268074 39.0527473 -64.20266573 36.90756235 -60.67327881 34.76133728 C-45.71501226 25.66527098 -30.74419478 16.59115376 -15.70605469 7.62744141 C-13.85429856 6.5137815 -12.01153323 5.38507178 -10.17675781 4.24365234 C-8.84016113 3.41728271 -8.84016113 3.41728271 -7.4765625 2.57421875 C-6.68588379 2.07881592 -5.89520508 1.58341309 -5.08056641 1.07299805 C-3 0 -3 0 0 0 Z " fill="#C7F7FA" transform="translate(502,222)"/>
<path d="M0 0 C0.4330841 7.36271858 0.72947129 14.72214138 0.93383789 22.09472656 C1.01904574 24.59825268 1.13486448 27.10093942 1.2824707 29.6015625 C2.44028462 49.7290957 2.44028462 49.7290957 -1.50894165 55.02255249 C-5.44537008 58.41093443 -9.96064783 60.29956832 -14.78268433 62.11303711 C-18.05943063 63.42378975 -20.82401099 65.19943899 -23.80078125 67.09765625 C-24.86490234 67.74476563 -25.92902344 68.391875 -27.02539062 69.05859375 C-28.11013672 69.71988281 -29.19488281 70.38117188 -30.3125 71.0625 C-31.5109874 71.79179866 -32.70955741 72.52096157 -33.90820312 73.25 C-36.38003438 74.75355326 -38.85152185 76.25766915 -41.32275391 77.76220703 C-46.63266731 80.99436634 -51.94696812 84.21929622 -57.26107788 87.44454956 C-60.17424462 89.21271565 -63.08710637 90.98138403 -66 92.75 C-67.16666522 93.45833572 -68.33333188 94.16666906 -69.5 94.875 C-70.36625 95.4009375 -70.36625 95.4009375 -71.25 95.9375 C-76.50000001 99.12500001 -76.50000001 99.12500001 -78.25006104 100.18753052 C-79.41653199 100.89574938 -80.58299521 101.60398099 -81.74945068 102.31222534 C-84.66904844 104.08491465 -87.58878094 105.85738126 -90.50878906 107.62939453 C-95.72392386 110.79450131 -100.93817908 113.96099937 -106.14723206 117.1361084 C-119.87893476 125.50580558 -133.66037075 133.78339464 -147.50152588 141.97094727 C-156.60881454 147.36049283 -165.65371769 152.83407454 -174.63037109 158.43945312 C-180.55707213 162.13176558 -186.54160656 165.71359267 -192.5625 169.25 C-203.9694419 175.95096641 -215.27484608 182.81508763 -226.57345581 189.69630432 C-230.77987987 192.25813949 -234.98868705 194.81601569 -239.19921875 197.37109375 C-239.78947342 197.72928192 -240.37972809 198.08747009 -240.98786926 198.45651245 C-242.17365702 199.17605948 -243.35945309 199.89559282 -244.54525757 200.6151123 C-252.82518841 205.63949141 -261.10176513 210.66932964 -269.37255859 215.70874023 C-278.89322927 221.50953419 -288.4313651 227.27874383 -298 233 C-301.2715889 234.95707372 -304.54240559 236.91543012 -307.8125 238.875 C-308.66005859 239.38289062 -309.50761719 239.89078125 -310.38085938 240.4140625 C-316.00185846 243.78751816 -321.59986372 247.1966392 -327.1875 250.625 C-333.25568346 254.33767271 -339.33101124 258.03811023 -345.4375 261.6875 C-346.15381592 262.1220752 -346.87013184 262.55665039 -347.6081543 263.00439453 C-352.6548987 266 -352.6548987 266 -356 266 C-354.97834847 260.69610697 -353.91504025 255.45087002 -352.45556641 250.24584961 C-351.91467876 247.89751882 -351.91467876 247.89751882 -351.89990234 245.03735352 C-351.60979632 239.9964802 -351.29991495 236.32288501 -347.66503906 232.6237793 C-344.41866343 230.44465097 -341.08098626 228.56483365 -337.625 226.75 C-336.35761297 226.04069725 -335.09291824 225.32656476 -333.83081055 224.60791016 C-331.20787986 223.11922479 -328.5746247 221.65189229 -325.93212891 220.19824219 C-320.36894035 217.11610823 -314.96528039 213.77781607 -309.55105591 210.44338989 C-306.64829243 208.65956278 -303.73428197 206.89434786 -300.8203125 205.12890625 C-300.2504512 204.78337204 -299.6805899 204.43783783 -299.09346008 204.08183289 C-292.10234 199.84542615 -285.08767959 195.6483252 -278.07470703 191.44824219 C-271.26332123 187.36595379 -264.46858032 183.25742306 -257.6875 179.125 C-256.75244629 178.55523437 -255.81739258 177.98546875 -254.85400391 177.3984375 C-250.8315435 174.94660011 -246.80960397 172.49391011 -242.78808594 170.04052734 C-228.45622807 161.30133312 -214.0773309 152.64934468 -199.63360596 144.09625244 C-188.27561117 137.36907293 -176.97592503 130.55228777 -165.71679688 123.66064453 C-162.94413525 121.96585262 -160.16798598 120.27692236 -157.390625 118.58984375 C-145.57070539 111.40944501 -145.57070539 111.40944501 -133.79296875 104.16015625 C-121.88325886 96.78469716 -109.91055268 89.55469266 -97.80725098 82.50350952 C-88.52332869 77.09339467 -79.30179252 71.58991574 -70.125 66 C-69.5314975 65.63856903 -68.937995 65.27713806 -68.32650757 64.90475464 C-65.51962972 63.19499434 -62.71349756 61.4840181 -59.90771484 59.77246094 C-52.30031655 55.13520556 -44.67604291 50.53267478 -36.953125 46.08984375 C-36.08051025 45.58759277 -35.20789551 45.0853418 -34.30883789 44.56787109 C-32.59636636 43.58444002 -30.88208299 42.60415542 -29.16577148 41.62744141 C-28.00670288 40.96301025 -28.00670288 40.96301025 -26.82421875 40.28515625 C-26.13416748 39.89207275 -25.44411621 39.49898926 -24.7331543 39.09399414 C-22.84290889 37.98991837 -22.84290889 37.98991837 -21 36 C-20.75787127 34.01871492 -20.75787127 34.01871492 -20.875 31.875 C-20.936875 29.956875 -20.936875 29.956875 -21 28 C-28.50261975 32.27167791 -35.85917275 36.75036759 -43.1875 41.3125 C-49.43714049 45.20022334 -55.70236493 49.04560604 -62.0625 52.75 C-69.45157589 57.05509488 -76.76039017 61.48681467 -84.0625 65.9375 C-94.47647042 72.28447817 -104.94046999 78.54144286 -115.4375 84.75 C-125.03821511 90.42979886 -134.59152295 96.16825687 -144.05249023 102.07910156 C-152.29570678 107.21684713 -160.63301739 112.19389616 -168.96984863 117.17755127 C-176.81242215 121.86732528 -184.62512578 126.59538857 -192.375 131.4375 C-201.86128084 137.36071549 -211.47906423 143.05315937 -221.10519409 148.74472046 C-230.26253785 154.16112599 -239.3668171 159.64651014 -248.39135742 165.2824707 C-255.15128426 169.49727871 -261.97404134 173.60153878 -268.8125 177.6875 C-275.51544902 181.6939645 -282.20700308 185.70951652 -288.8125 189.875 C-309.08574523 202.63427042 -329.48757112 215.41451912 -351 226 C-351.99 221.71 -352.98 217.42 -354 213 C-339.38311375 204.0814155 -324.73537408 195.22158064 -310 186.5 C-295.265352 177.77678611 -280.61766512 168.91770905 -266 160 C-262.10457529 157.624329 -258.20882834 155.2491887 -254.3125 152.875 C-253.3838916 152.30910156 -252.4552832 151.74320313 -251.49853516 151.16015625 C-243.58664331 146.3445806 -235.64430813 141.58060098 -227.69775391 136.82250977 C-219.07311343 131.65425829 -210.47623893 126.44132637 -201.88571167 121.2166748 C-194.56428083 116.76413459 -187.23134986 112.33214372 -179.875 107.9375 C-172.3792667 103.45591179 -164.93327167 98.89686737 -157.5 94.3125 C-137.75370641 82.13813712 -117.9254212 70.11404037 -97.96466064 58.29483032 C-88.52824731 52.70611941 -79.12010341 47.07421846 -69.75 41.375 C-69.1819162 41.0295816 -68.6138324 40.68416321 -68.02853394 40.32827759 C-62.81726841 37.1587451 -57.60926529 33.98388469 -52.40478516 30.80322266 C-48.79220594 28.59549151 -45.17815036 26.39019795 -41.5625 24.1875 C-40.98066956 23.83295746 -40.39883911 23.47841492 -39.79937744 23.11312866 C-31.14018191 17.84267629 -22.40875797 12.71434993 -13.56860352 7.75268555 C-10.13538021 5.82187268 -6.75482681 3.88536359 -3.4921875 1.67578125 C-1 0 -1 0 0 0 Z " fill="#DCF9FB" transform="translate(502,231)"/>
<path d="M0 0 C0.21680989 2.8998323 0.37461435 5.78347867 0.5 8.6875 C0.56703125 9.50412109 0.6340625 10.32074219 0.703125 11.16210938 C0.78377458 13.65216519 0.71534481 15.60999594 0 18 C-2.31642944 20.36133041 -5.03874893 21.58625916 -8 23 C-9.56307878 23.88701409 -11.12023869 24.78452475 -12.671875 25.69140625 C-14.36409613 26.6492987 -16.05682677 27.60629148 -17.75 28.5625 C-33.17053589 37.32731436 -48.30120237 46.56175811 -63.4440918 55.79516602 C-70.31624765 59.9832901 -77.2098727 64.13393546 -84.11621094 68.26538086 C-90.59261384 72.14427909 -97.04306684 76.06486509 -103.49075317 79.99127197 C-104.07130463 80.34477722 -104.65185608 80.69828247 -105.25 81.0625 C-105.83079315 81.41616638 -106.4115863 81.76983276 -107.00997925 82.13421631 C-117.57440308 88.56321885 -128.20287602 94.88067146 -138.84631348 101.17776489 C-146.52370614 105.7219593 -154.17373124 110.29305845 -161.70141602 115.08251953 C-168.93465956 119.64955474 -176.32475367 123.95893735 -183.6875 128.3125 C-193.54259604 134.14049365 -203.35306639 140.02136155 -213.06494141 146.08618164 C-220.51320403 150.7262617 -228.032529 155.24439283 -235.5625 159.75 C-245.43471632 165.65810721 -255.29377512 171.58639234 -265.125 177.5625 C-265.69566193 177.90932831 -266.26632385 178.25615662 -266.85427856 178.61349487 C-270.31613003 180.71770238 -273.7773431 182.82295817 -277.23840332 184.9284668 C-282.0605263 187.86163813 -286.88370176 190.79307733 -291.70748901 193.72351074 C-292.89857258 194.44711981 -294.0895927 195.17083332 -295.2805481 195.89465332 C-302.69005561 200.39739253 -310.11678975 204.86987812 -317.5625 209.3125 C-325.14845244 213.84037997 -332.63780016 218.5095133 -340.08813477 223.25708008 C-340.83506592 223.73298584 -341.58199707 224.2088916 -342.3515625 224.69921875 C-343.00979004 225.12033936 -343.66801758 225.54145996 -344.34619141 225.9753418 C-350.07262199 229.52329414 -358.43878535 228.90631889 -365 228 C-367.43423192 226.87618935 -368.60036711 225.80995313 -370.36328125 223.8203125 C-372.37245936 221.58576119 -374.58958353 220.08070574 -377.0625 218.375 C-382.15913945 214.71962334 -386.87235271 210.74810467 -391.59594727 206.63427734 C-395.63839561 203.12793217 -399.76797505 199.77432262 -404 196.5 C-409.39776336 192.31965263 -414.59556807 187.9560804 -419.75 183.48046875 C-423.74367368 180.03057653 -427.82811252 176.73140754 -432 173.5 C-437.48764822 169.24884234 -442.78223967 164.8157984 -448.02905273 160.27172852 C-452.08995283 156.76013997 -456.23383424 153.38008085 -460.44921875 150.0546875 C-463.47661493 147.61608047 -466.42307986 145.09141437 -469.375 142.5625 C-474.66806675 138.03604247 -480.12497362 133.8059749 -485.734375 129.6796875 C-488 128 -488 128 -489 127 C-489.08631874 125.65732587 -489.10706473 124.31025678 -489.09765625 122.96484375 C-489.09443359 122.15595703 -489.09121094 121.34707031 -489.08789062 120.51367188 C-489.07951172 119.66353516 -489.07113281 118.81339844 -489.0625 117.9375 C-489.05798828 117.08349609 -489.05347656 116.22949219 -489.04882812 115.34960938 C-489.03700373 113.23304337 -489.01906769 111.11651315 -489 109 C-485.75539105 110.47079084 -483.19445505 112.31424176 -480.4375 114.5625 C-479.55835938 115.27664063 -478.67921875 115.99078125 -477.7734375 116.7265625 C-476.85820312 117.47679687 -475.94296875 118.22703125 -475 119 C-474.10539062 119.72960937 -473.21078125 120.45921875 -472.2890625 121.2109375 C-469.52274644 123.46996351 -466.76108944 125.73459001 -464 128 C-462.16689838 129.50028317 -460.33356573 131.00028408 -458.5 132.5 C-447.5 141.5 -447.5 141.5 -444.7265625 143.76953125 C-442.97182216 145.20499935 -441.21664845 146.63993796 -439.4609375 148.07421875 C-436.63876934 150.38055255 -433.81857069 152.68927237 -431 155 C-430.36255859 155.52255371 -429.72511719 156.04510742 -429.06835938 156.58349609 C-421.77290334 162.56788962 -414.48858664 168.56019188 -407.3125 174.6875 C-402.48024135 178.80754979 -397.53461715 182.75552615 -392.52416992 186.65600586 C-387.66540419 190.44967105 -382.8842799 194.33240177 -378.125 198.25 C-377.43567383 198.81630127 -376.74634766 199.38260254 -376.03613281 199.96606445 C-375.36678711 200.51866943 -374.69744141 201.07127441 -374.0078125 201.640625 C-373.3468457 202.18525391 -372.68587891 202.72988281 -372.00488281 203.29101562 C-370.61574197 204.4751347 -369.25713909 205.69566739 -367.92480469 206.94335938 C-364.97006056 209.69476326 -362.7305617 211.73777067 -358.8984375 213.11328125 C-355.18103594 212.96799197 -352.91749096 211.91977256 -349.625 210.1875 C-348.71065186 209.70772705 -348.71065186 209.70772705 -347.77783203 209.21826172 C-341.96964105 206.10942343 -336.41598915 202.60870709 -330.86328125 199.0703125 C-324.6516144 195.12363638 -318.35462642 191.31641508 -312.0625 187.5 C-311.44793945 187.12692719 -310.83337891 186.75385437 -310.20019531 186.36947632 C-302.65027597 181.78791937 -295.07398968 177.2572299 -287.44287109 172.81201172 C-280.38616935 168.67961547 -273.4397974 164.36853522 -266.4822998 160.07196045 C-258.6029303 155.20662073 -250.6975377 150.39125866 -242.74755859 145.64233398 C-235.58150549 141.35857584 -228.44563882 137.02574161 -221.3125 132.6875 C-211.3693558 126.64124754 -201.40446237 120.63293742 -191.41943359 114.65600586 C-184.3215069 110.40339281 -177.24621901 106.11455268 -170.17929077 101.81069946 C-159.39008606 95.24039043 -148.55726947 88.74866005 -137.6875 82.3125 C-119.16285065 71.3412497 -100.80184812 60.11506919 -82.47460938 48.81738281 C-75.26351359 44.37763541 -68.02346496 39.99057913 -60.75488281 35.64575195 C-53.50761588 31.31175862 -46.28171575 26.94299383 -39.0625 22.5625 C-38.17079605 22.0217131 -38.17079605 22.0217131 -37.26107788 21.47000122 C-28.23549181 15.99426069 -19.24396116 10.46531549 -10.30688477 4.84594727 C-9.51338623 4.35022217 -8.7198877 3.85449707 -7.90234375 3.34375 C-6.87355103 2.69696289 -6.87355103 2.69696289 -5.82397461 2.03710938 C-3.97814267 0.98757196 -2.18829263 0 0 0 Z " fill="#76ABAE" transform="translate(502,284)"/>
<path d="M0 0 C3.01517867 2.7280188 3.8484574 4.07180154 4.5 8.0625 C3.87057685 11.760361 2.956885 12.73402113 0 15 C-3.234375 15.390625 -3.234375 15.390625 -6.75 15.25 C-7.92046875 15.21390625 -9.0909375 15.1778125 -10.296875 15.140625 C-11.18890625 15.09421875 -12.0809375 15.0478125 -13 15 C-13 13.68 -13 12.36 -13 11 C-7.555 10.01 -7.555 10.01 -2 9 C-2 7.68 -2 6.36 -2 5 C-14.97804674 1.53918754 -29.58007101 5.60483976 -41 12 C-41.66 12 -42.32 12 -43 12 C-43.33 13.32 -43.66 14.64 -44 16 C-44.66 16 -45.32 16 -46 16 C-45.21545812 19.92270942 -44.60522024 21.58734984 -41.25 23.875 C-28.7006064 28.1586029 -15.08995867 23.38414584 -2.9375 20 C-1.07798291 19.49662747 0.78196747 18.99485301 2.64233398 18.49462891 C11.0668841 16.22026273 19.47090054 13.87202119 27.875 11.5234375 C28.54285019 11.33734924 29.21070038 11.15126099 29.89878845 10.95953369 C32.94597854 10.10995094 35.99002058 9.25169007 39.02954102 8.375 C54.49725315 3.99011969 54.49725315 3.99011969 60.5625 6.4375 C61.366875 6.953125 62.17125 7.46875 63 8 C63 9.65 63 11.3 63 13 C59.05816339 14.37673499 55.18774024 15.46382624 51.09765625 16.296875 C49.97004883 16.53067871 48.84244141 16.76448242 47.68066406 17.00537109 C46.48666992 17.25109863 45.29267578 17.49682617 44.0625 17.75 C31.25955453 20.43113086 18.61634553 23.5521235 6 27 C6.63502441 27.11069824 7.27004883 27.22139648 7.92431641 27.33544922 C10.8253933 27.8439181 13.72518313 28.35939574 16.625 28.875 C17.62402344 29.04902344 18.62304688 29.22304688 19.65234375 29.40234375 C24.58515152 30.28436898 29.29466239 31.21743183 34 33 C34 34.98 34 36.96 34 39 C33.29504395 39.19110352 32.59008789 39.38220703 31.86376953 39.57910156 C28.61582005 40.46330992 25.37043123 41.35659477 22.125 42.25 C21.01640625 42.55035156 19.9078125 42.85070313 18.765625 43.16015625 C12.6906098 44.83971928 6.88537717 46.70678071 1.11669922 49.25683594 C-1 50 -1 50 -5 50 C-5 51.65 -5 53.3 -5 55 C-4.42217773 54.84313721 -3.84435547 54.68627441 -3.24902344 54.5246582 C-1.14020154 54.03270659 0.82894157 53.77545805 2.984375 53.60546875 C10.94361876 52.91142202 18.59539122 52.0609228 26.3125 49.9375 C36.84682866 47.08257269 48.44568259 45.25491963 59 49 C62.78772401 51.19846918 65.46856645 53.32394035 66.8125 57.5625 C65.56095001 61.31714996 63.19180924 62.79028591 60 65 C51.01489201 68.02020437 40.72860545 65.86571685 32 63 C31.27683594 62.63261719 30.55367188 62.26523438 29.80859375 61.88671875 C27.18758545 60.60168877 25.74246625 61.13043753 23 62 C21.32983484 62.99414593 19.66279327 63.9935725 18 65 C17.01 65 16.02 65 15 65 C15 67.31 15 69.62 15 72 C16.59802902 72.51928216 18.20401258 73.01407932 19.8125 73.5 C20.70582031 73.7784375 21.59914063 74.056875 22.51953125 74.34375 C32.09944066 76.15006289 40.50629431 74.43068952 49.8125 72 C63.12317883 68.75321848 75.24615589 66.25062055 88 73 C90.86665778 75.49302598 91.92153723 77.07806245 92.25 80.9375 C92 84 92 84 90.625 85.8125 C87.43650111 88.14255688 85.28054396 88.1079133 81.375 88.0625 C79.87066406 88.04896484 79.87066406 88.04896484 78.3359375 88.03515625 C77.56507813 88.02355469 76.79421875 88.01195313 76 88 C76 86.68 76 85.36 76 84 C79.3 83.01 82.6 82.02 86 81 C86 79.68 86 78.36 86 77 C73.40219643 74.89562649 61.42131222 77.38245242 50 83 C48.32269457 84.31992501 46.65370429 85.65062323 45 87 C44.34 87 43.68 87 43 87 C43 89.64 43 92.28 43 95 C45.03264969 95.57457879 47.07709994 96.10739889 49.125 96.625 C50.26195312 96.92664063 51.39890625 97.22828125 52.5703125 97.5390625 C63.97193088 99.3565333 76.18600805 94.74896755 86.98413086 91.48944092 C91.16893777 90.22814786 95.36472821 89.00419887 99.55859375 87.7734375 C100.37943451 87.53158722 101.20027527 87.28973694 102.04598999 87.04055786 C141.23247495 75.49932269 141.23247495 75.49932269 148.8671875 79.50390625 C149.57101562 79.99761719 150.27484375 80.49132812 151 81 C150.67 82.65 150.34 84.3 150 86 C149.39341553 86.08975098 148.78683105 86.17950195 148.16186523 86.27197266 C130.38390852 88.94958669 113.26049547 93.02784081 96 98 C96.95519531 98.02578125 97.91039062 98.0515625 98.89453125 98.078125 C108.18954524 98.48588234 117.86319119 99.03963554 125.25 105.4375 C127 108 127 108 127.3125 110.625 C125.64619662 113.64021564 123.80223922 114.48367524 120.5625 115.49609375 C111.93891142 117.19189089 103.94492973 116.12515599 95.65625 113.4609375 C92.40620458 112.89695903 90.88431039 113.46954959 88 115 C83.73612319 119.02699476 83.38029103 122.39070732 83 128 C91.76478996 128.36351663 100.66553398 127.63470091 109.1796875 125.4375 C112.1012959 124.73531086 115.01195889 124.94253767 118 125 C118 126.32 118 127.64 118 129 C116.10546779 129.64964023 114.20931351 130.29455115 112.3125 130.9375 C111.25675781 131.29714844 110.20101562 131.65679687 109.11328125 132.02734375 C99.78761764 134.94088232 89.00105941 135.59404735 79.7734375 131.9921875 C76.39132534 130.09999259 74.68840919 127.37681838 73 124 C72.7326315 119.89756452 73.06239285 116.34087905 75.453125 112.921875 C79.8304661 108.39227855 83.27708642 106.23473393 89.625 105.6875 C94.06219647 105.78796483 98.0676042 107.01397432 102.30078125 108.265625 C105.86732955 109.23597389 109.32497549 109.65329957 113 110 C113 108.68 113 107.36 113 106 C98.93071352 102.64731897 83.57501166 99.83792947 70.42578125 107.5 C66.5168814 109.99868672 66.5168814 109.99868672 63 113 C59.39251163 113.50104005 58.2154253 113.15319133 55.1875 111 C54.465625 110.34 53.74375 109.68 53 109 C53.33 107.35 53.66 105.7 54 104 C53.35933594 103.84144531 52.71867187 103.68289062 52.05859375 103.51953125 C45.43427861 101.73264445 39.3070873 99.81170946 35.5625 93.625 C34.86180024 90.35506781 34.87645529 87.33570725 35 84 C35 83.01 35 82.02 35 81 C33.72125 81.061875 32.4425 81.12375 31.125 81.1875 C22.8766447 81.14859266 16.35660657 79.02387384 10.27734375 73.40234375 C8.05461082 70.96209568 7.86323197 69.20090403 7.875 66 C7.87113281 64.948125 7.87113281 64.948125 7.8671875 63.875 C8 62 8 62 9 60 C8.07380859 60.05220703 8.07380859 60.05220703 7.12890625 60.10546875 C-0.42600028 60.34694978 -6.64870227 59.23419849 -13 55 C-14.1738321 51.97465955 -14.4063126 49.2125783 -14 46 C-11.08345145 40.85381202 -5.54565237 39.32536317 -0.1875 37.6875 C5.52222214 36.21579622 11.11101813 35.27138165 17 35 C17 34.34 17 33.68 17 33 C4.01959374 32.84648665 -8.91807153 32.73331369 -21.6484375 35.5859375 C-26.78463208 36.49031728 -32.03954416 36.65348528 -37 35 C-37 33.35 -37 31.7 -37 30 C-37.56847656 29.85304687 -38.13695312 29.70609375 -38.72265625 29.5546875 C-44.47893463 27.88257992 -49.20929563 25.80006353 -53 21 C-54.27790026 17.02431031 -54.27920238 14.91206109 -53.0625 10.9375 C-42.68991609 -3.83557405 -15.51491823 -9.64186214 0 0 Z M32 57 C35.73617255 61.2896796 38.35369683 61.81252348 43.8671875 62.203125 C50.07357913 62.29984799 54.52093612 61.9885803 60 59 C60 57.68 60 56.36 60 55 C50.42754323 52.44734486 41.36134946 54.53494246 32 57 Z " fill="#D1D1D1" transform="translate(347,21)"/>
<path d="M0 0 C0.56949588 3.16386602 0.68135825 5.84610649 0 9 C-1.60400391 10.546875 -1.60400391 10.546875 -3.7890625 11.875 C-4.61043701 12.3817627 -5.43181152 12.88852539 -6.27807617 13.41064453 C-7.17631104 13.93513184 -8.0745459 14.45961914 -9 15 C-9.91048096 15.53608887 -10.82096191 16.07217773 -11.7590332 16.62451172 C-14.80742448 18.39474451 -17.87095009 20.13642863 -20.9375 21.875 C-32.36052282 28.40454618 -43.58559396 35.20477189 -54.76171875 42.1484375 C-65.50728318 48.81125677 -76.39275107 55.24273809 -87.27294922 61.68237305 C-109.05087304 74.57284329 -130.67530311 87.70143917 -152.21679688 100.98339844 C-163.0114316 107.63453907 -173.85000855 114.21234633 -184.69413757 120.78230286 C-188.81385819 123.27892127 -192.92931733 125.782459 -197.04296875 128.2890625 C-209.64753437 135.96608035 -222.29523927 143.55919376 -235.00732422 151.05761719 C-242.620059 155.5596177 -250.16836778 160.15609303 -257.6875 164.8125 C-267.35378188 170.79744354 -277.08957827 176.65020096 -286.875 182.4375 C-297.20291171 188.54570572 -307.50056398 194.69842008 -317.75 200.9375 C-318.90485339 201.63999556 -320.05971975 202.34246981 -321.21459961 203.04492188 C-323.4239401 204.3891389 -325.6331723 205.73353392 -327.84228516 207.078125 C-332.70388921 210.0370354 -337.566851 212.99349744 -342.4375 215.9375 C-343.24219727 216.42790771 -344.04689453 216.91831543 -344.87597656 217.42358398 C-353.07042918 222.36467139 -353.07042918 222.36467139 -356 223 C-358.3671875 221.90234375 -358.3671875 221.90234375 -360.875 219.9375 C-361.83535156 219.18984375 -362.79570312 218.4421875 -363.78515625 217.671875 C-368.01014767 214.20129931 -372.13000391 210.60702139 -376.23535156 206.99633789 C-380.43109783 203.31525428 -384.71201706 199.79198008 -389.125 196.375 C-394.15243906 192.47971556 -399.05180698 188.47133877 -403.88842773 184.34204102 C-413.5385787 176.11184291 -423.35677558 168.07538351 -433.28515625 160.18359375 C-439.2527377 155.38376925 -445.13930358 150.48377861 -451.04638672 145.60986328 C-453.52568661 143.56681111 -456.0118717 141.532288 -458.5 139.5 C-463.23293172 135.62957804 -467.96263519 131.75526462 -472.6875 127.875 C-473.38875 127.30072266 -474.09 126.72644531 -474.8125 126.13476562 C-476.18771304 125.00429389 -477.55871146 123.86867418 -478.92529297 122.7277832 C-480.36621202 121.52780861 -481.81934126 120.34240544 -483.28173828 119.16870117 C-484.00989746 118.56775635 -484.73805664 117.96681152 -485.48828125 117.34765625 C-486.14997314 116.81148682 -486.81166504 116.27531738 -487.4934082 115.72290039 C-489.3674292 113.57981723 -489.50092345 112.37687159 -489.5 109.5625 C-489.2525 107.7990625 -489.2525 107.7990625 -489 106 C-481.94869793 108.61905506 -477.46829382 112.26491435 -472.375 117.75 C-470.90383382 119.25659086 -470.90383382 119.25659086 -468 120 C-466.64426252 121.31054623 -465.31387169 122.64748503 -464 124 C-462.34431791 125.34694929 -460.67657023 126.67914126 -459 128 C-451.29482564 134.11199921 -443.6982756 140.34923752 -436.11328125 146.609375 C-432.83532249 149.3142327 -429.54587 152.00447845 -426.25 154.6875 C-422.90879536 157.41388267 -419.60580103 160.17874871 -416.32543945 162.97753906 C-411.32154602 167.24677234 -406.25943237 171.40494728 -401.0625 175.4375 C-395.53011852 179.730344 -390.19476992 184.21106986 -384.90307617 188.79614258 C-381.12285478 192.06342933 -377.27369786 195.19121694 -373.28515625 198.203125 C-371.48135734 199.62149679 -369.72843333 201.10455986 -367.99609375 202.609375 C-367.46902832 203.06618652 -366.94196289 203.52299805 -366.39892578 203.99365234 C-364.88997883 205.3075369 -363.39193928 206.63391726 -361.89453125 207.9609375 C-358.69025205 210.21820301 -356.90461524 210.9439285 -353 211 C-350.13598976 210.03861562 -350.13598976 210.03861562 -347.3125 208.3125 C-346.75473877 207.99635742 -346.19697754 207.68021484 -345.62231445 207.35449219 C-340.08292305 204.16339447 -334.71301799 200.68852619 -329.33154297 197.24047852 C-321.47155363 192.23088986 -313.46295536 187.4874602 -305.4375 182.75 C-295.48919308 176.87378594 -285.57861617 170.9501414 -275.75 164.875 C-274.70207275 164.22732666 -273.65414551 163.57965332 -272.57446289 162.91235352 C-271.52637451 162.26451904 -270.47828613 161.61668457 -269.3984375 160.94921875 C-252.02972579 150.21457538 -234.53355002 139.69776027 -216.96466064 129.29483032 C-204.06857603 121.65713089 -191.24658273 113.90246882 -178.44873047 106.1015625 C-172.57335264 102.52050708 -166.69325734 98.94721233 -160.8125 95.375 C-160.22980347 95.02097107 -159.64710693 94.66694214 -159.04675293 94.30218506 C-149.85964087 88.72149434 -140.64822925 83.18210076 -131.42626953 77.65917969 C-120.10427531 70.87348708 -108.82645528 64.0154694 -97.54833984 57.15722656 C-91.11902261 53.24791548 -84.68610911 49.34452343 -78.25384521 45.44006348 C-76.50644712 44.37935039 -74.75907327 43.31859737 -73.01171875 42.2578125 C-72.434823 41.90759033 -71.85792725 41.55736816 -71.2635498 41.1965332 C-67.73268074 39.0527473 -64.20266573 36.90756235 -60.67327881 34.76133728 C-45.71501226 25.66527098 -30.74419478 16.59115376 -15.70605469 7.62744141 C-13.85429856 6.5137815 -12.01153323 5.38507178 -10.17675781 4.24365234 C-8.84016113 3.41728271 -8.84016113 3.41728271 -7.4765625 2.57421875 C-6.68588379 2.07881592 -5.89520508 1.58341309 -5.08056641 1.07299805 C-3 0 -3 0 0 0 Z " fill="#80B1B4" transform="translate(502,222)"/>
<path d="M0 0 C0.33 0 0.66 0 1 0 C1.21784569 1.38876626 1.37211181 2.78758104 1.5 4.1875 C1.5928125 4.96480469 1.685625 5.74210937 1.78125 6.54296875 C0.454116 10.71680517 -3.30598596 11.98955114 -7 14 C-8.55795233 14.89598763 -10.11522683 15.79315475 -11.671875 16.69140625 C-13.36409613 17.6492987 -15.05682677 18.60629148 -16.75 19.5625 C-32.17053589 28.32731436 -47.30120237 37.56175811 -62.4440918 46.79516602 C-69.31624765 50.9832901 -76.2098727 55.13393546 -83.11621094 59.26538086 C-89.59261384 63.14427909 -96.04306684 67.06486509 -102.49075317 70.99127197 C-103.07130463 71.34477722 -103.65185608 71.69828247 -104.25 72.0625 C-104.83079315 72.41616638 -105.4115863 72.76983276 -106.00997925 73.13421631 C-116.57440308 79.56321885 -127.20287602 85.88067146 -137.84631348 92.17776489 C-145.52370614 96.7219593 -153.17373124 101.29305845 -160.70141602 106.08251953 C-167.93465956 110.64955474 -175.32475367 114.95893735 -182.6875 119.3125 C-192.54259604 125.14049365 -202.35306639 131.02136155 -212.06494141 137.08618164 C-219.51320403 141.7262617 -227.032529 146.24439283 -234.5625 150.75 C-244.43471632 156.65810721 -254.29377512 162.58639234 -264.125 168.5625 C-264.69566193 168.90932831 -265.26632385 169.25615662 -265.85427856 169.61349487 C-269.31613003 171.71770238 -272.7773431 173.82295817 -276.23840332 175.9284668 C-281.0605263 178.86163813 -285.88370176 181.79307733 -290.70748901 184.72351074 C-291.89857258 185.44711981 -293.0895927 186.17083332 -294.2805481 186.89465332 C-301.69005561 191.39739253 -309.11678975 195.86987812 -316.5625 200.3125 C-324.14845244 204.84037997 -331.63780016 209.5095133 -339.08813477 214.25708008 C-339.83506592 214.73298584 -340.58199707 215.2088916 -341.3515625 215.69921875 C-342.00979004 216.12033936 -342.66801758 216.54145996 -343.34619141 216.9753418 C-349.07262199 220.52329414 -357.43878535 219.90631889 -364 219 C-366.43423192 217.87618935 -367.60036711 216.80995313 -369.36328125 214.8203125 C-371.37245936 212.58576119 -373.58958353 211.08070574 -376.0625 209.375 C-381.15913945 205.71962334 -385.87235271 201.74810467 -390.59594727 197.63427734 C-394.63839561 194.12793217 -398.76797505 190.77432262 -403 187.5 C-408.39776336 183.31965263 -413.59556807 178.9560804 -418.75 174.48046875 C-422.74367368 171.03057653 -426.82811252 167.73140754 -431 164.5 C-436.48764822 160.24884234 -441.78223967 155.8157984 -447.02905273 151.27172852 C-451.08995283 147.76013997 -455.23383424 144.38008085 -459.44921875 141.0546875 C-462.47661493 138.61608047 -465.42307986 136.09141437 -468.375 133.5625 C-473.66806675 129.03604247 -479.12497362 124.8059749 -484.734375 120.6796875 C-487 119 -487 119 -488 118 C-488.07179964 116.48071962 -488.08392007 114.95832518 -488.0625 113.4375 C-488.05347656 112.61121094 -488.04445313 111.78492188 -488.03515625 110.93359375 C-488.02355469 110.29550781 -488.01195312 109.65742188 -488 109 C-478.28040897 116.16751965 -468.9735545 123.82882322 -459.66235352 131.51367188 C-454.79244386 135.53101452 -449.90433523 139.52477906 -445 143.5 C-433.73276844 152.6390232 -422.51481697 161.83367061 -411.46459961 171.234375 C-407.51336671 174.58746546 -403.49256186 177.8413029 -399.43359375 181.0625 C-393.50877946 185.77952711 -387.67693248 190.61263082 -381.83984375 195.4375 C-378.19735539 198.44830821 -374.54649725 201.44871366 -370.89111328 204.44384766 C-369.29306567 205.7588432 -367.70583043 207.08696196 -366.12109375 208.41796875 C-365.35925781 209.04316406 -364.59742188 209.66835938 -363.8125 210.3125 C-363.20019531 210.82425781 -362.58789062 211.33601562 -361.95703125 211.86328125 C-359.12763059 213.50670559 -357.30097763 213.95656608 -354 214 C-351.08547555 212.80548451 -348.55532088 211.11306378 -345.9375 209.375 C-344.32300356 208.3462178 -342.70841664 207.31757757 -341.09375 206.2890625 C-340.25585938 205.74668945 -339.41796875 205.20431641 -338.5546875 204.64550781 C-334.38311932 201.95854589 -330.15916238 199.35726147 -325.9375 196.75 C-325.06609375 196.20939941 -324.1946875 195.66879883 -323.296875 195.11181641 C-315.50505726 190.28556225 -307.64966934 185.56869157 -299.78417969 180.86376953 C-291.90086894 176.14650972 -284.03815159 171.39631706 -276.1875 166.625 C-275.60797577 166.27285431 -275.02845154 165.92070862 -274.43136597 165.55789185 C-270.886269 163.40358592 -267.34169659 161.24841822 -263.79730225 159.09295654 C-258.36562056 155.78989939 -252.933221 152.48802451 -247.5 149.1875 C-246.61482193 148.64974945 -246.61482193 148.64974945 -245.71176147 148.10113525 C-237.70685386 143.23909914 -229.68747391 138.40208547 -221.64990234 133.59423828 C-216.86272265 130.72736713 -212.08708038 127.8420799 -207.3203125 124.94140625 C-206.73570755 124.58567535 -206.1511026 124.22994446 -205.54878235 123.86343384 C-204.34729707 123.13224437 -203.14582525 122.4010328 -201.94436646 121.6697998 C-201.34397552 121.30439087 -200.74358459 120.93898193 -200.125 120.5625 C-199.5259787 120.19789673 -198.9269574 119.83329346 -198.30978394 119.4576416 C-190.42834669 114.66268314 -182.51795003 109.92146431 -174.5625 105.25 C-166.83757362 100.71292852 -159.20542667 96.04768065 -151.60693359 91.30249023 C-142.67376691 85.74959684 -133.61689443 80.40929591 -124.56311035 75.05651855 C-116.51206541 70.29498725 -108.49187904 65.50544751 -100.59277344 60.49438477 C-94.35859026 56.55579367 -87.99516564 52.84048148 -81.63793945 49.10498047 C-74.74227481 45.04660998 -67.89195849 40.91874021 -61.0625 36.75 C-60.09054687 36.15678955 -59.11859375 35.5635791 -58.1171875 34.95239258 C-56.25030984 33.81285122 -54.38344718 32.67328527 -52.51660156 31.53369141 C-36.11990981 21.54106261 -19.5855316 11.75970723 -2.94921875 2.171875 C-1.06603093 1.14659035 -1.06603093 1.14659035 0 0 Z " fill="#D5D5D6" transform="translate(501,293)"/>
<path d="M0 0 C0.5016722 3.13545122 0.59818344 5.87189608 0 9 C-4.89273471 14.43580796 -12.67275249 17.77830112 -19 21.25 C-25.56898417 24.90866167 -32.10078887 28.57543583 -38.4375 32.625 C-46.33103333 37.65783256 -54.38264855 42.41942311 -62.4375 47.1875 C-63.84645387 48.0220231 -65.25538939 48.85657719 -66.66430664 49.69116211 C-68.76932168 50.93799966 -70.87435557 52.18480523 -72.97950745 53.43141174 C-88.76178021 62.77961249 -104.46102975 72.2565954 -120.07324219 81.88623047 C-138.62811502 93.32775798 -157.27829965 104.5987095 -176.03533936 115.70516968 C-188.93598522 123.34557051 -201.76200141 131.10369265 -214.56445312 138.90722656 C-219.78751113 142.09008565 -225.01703654 145.26229518 -230.24597168 148.43548584 C-233.16423585 150.206571 -236.08209789 151.97831841 -239 153.75 C-240.16666473 154.45833652 -241.3333314 155.16666985 -242.5 155.875 C-243.0775 156.225625 -243.655 156.57625 -244.25 156.9375 C-249.50000001 160.125 -249.50000001 160.125 -251.24998474 161.18748474 C-252.41670936 161.89585726 -253.58342689 162.60424145 -254.75013733 163.31263733 C-257.66585927 165.08296699 -260.58170396 166.85309386 -263.49780273 168.62280273 C-268.75908306 171.81601548 -274.01944358 175.01069462 -279.2752533 178.21290588 C-291.27338061 185.52296601 -303.28787422 192.80380191 -315.36642456 199.98043823 C-316.57428098 200.69813241 -317.78174395 201.41648918 -318.98880005 202.13552856 C-320.65129208 203.12525575 -322.31582661 204.11154966 -323.98046875 205.09765625 C-324.92817139 205.65976807 -325.87587402 206.22187988 -326.85229492 206.80102539 C-329 208 -329 208 -330 208 C-330.33 205.03 -330.66 202.06 -331 199 C-327.93794994 197.18673658 -324.87542778 195.37428001 -321.8125 193.5625 C-320.84231934 192.98846436 -319.87213867 192.41442871 -318.87255859 191.82299805 C-313.13883831 188.43415426 -307.39731923 185.05946561 -301.64453125 181.703125 C-285.78436799 172.47891809 -285.78436799 172.47891809 -270.15576172 162.87060547 C-263.73868216 158.80841749 -257.24502622 154.87328907 -250.75 150.9375 C-250.14981049 150.5738031 -249.54962097 150.2101062 -248.9312439 149.83538818 C-246.46760334 148.34270822 -244.00387489 146.85017375 -241.53987122 145.35809326 C-237.38722875 142.8428153 -233.23916525 140.32013696 -229.09375 137.79296875 C-215.90073131 129.75440604 -202.6527992 121.8174099 -189.3536377 113.95562744 C-180.93892408 108.97773075 -172.59917274 103.91774745 -164.37231445 98.63330078 C-156.03955566 93.31841127 -147.51003013 88.33420439 -139.00146484 83.30810547 C-130.78265011 78.45196441 -122.59284499 73.56459699 -114.5 68.5 C-105.78772476 63.05130359 -96.96822975 57.7946511 -88.125 52.5625 C-77.81577251 46.46291251 -67.53640928 40.32196888 -57.31787109 34.07104492 C-50.32186805 29.79390617 -43.29008963 25.57909779 -36.25 21.375 C-27.69823335 16.26554141 -19.2214018 11.05606012 -10.83496094 5.67919922 C-10.11985352 5.22174316 -9.40474609 4.76428711 -8.66796875 4.29296875 C-8.05203857 3.8961792 -7.4361084 3.49938965 -6.80151367 3.09057617 C-1.6962167 0 -1.6962167 0 0 0 Z " fill="#76ABAE" transform="translate(482,258)"/>
<path d="M0 0 C2.9375 1.125 2.9375 1.125 3.9375 2.125 C4.3046875 4.453125 4.3046875 4.453125 3.9375 7.125 C1.8203125 9.109375 1.8203125 9.109375 -0.9375 10.875 C-1.84242188 11.46796875 -2.74734375 12.0609375 -3.6796875 12.671875 C-6.0625 14.125 -6.0625 14.125 -8.0625 15.125 C-4.85133205 14.60706969 -2.01850781 13.72599756 1 12.5625 C6.50206524 10.68847442 12.18545244 10.27592786 17.9375 11.125 C20.29296875 12.3984375 20.29296875 12.3984375 21.9375 14.125 C21.9375 15.445 21.9375 16.765 21.9375 18.125 C23.360625 16.9803125 23.360625 16.9803125 24.8125 15.8125 C25.34617187 15.38324219 25.87984375 14.95398438 26.4296875 14.51171875 C28.19042107 13.00229455 28.19042107 13.00229455 29.9375 10.125 C35.6875 10.875 35.6875 10.875 37.9375 13.125 C37.78836521 16.20711897 37.4161218 17.66126866 35.1796875 19.828125 C34.39851563 20.33859375 33.61734375 20.8490625 32.8125 21.375 C31.92433594 21.96152344 31.03617187 22.54804688 30.12109375 23.15234375 C25.73764762 25.86846681 21.3194008 28.52670118 16.85302734 31.10449219 C13.3014727 33.00852923 13.3014727 33.00852923 10.9375 36.125 C15.53872092 35.34790491 19.15264466 34.65870163 23.0625 32 C26.64743005 29.66200214 28.73373811 29.56978617 32.9375 30.125 C35.55343153 31.95615207 35.90739455 33.03468366 36.9375 36.125 C38.5875 36.455 40.2375 36.785 41.9375 37.125 C42.4325 39.105 42.4325 39.105 42.9375 41.125 C26.78856383 52.08244681 26.78856383 52.08244681 18.9375 56.125 C29.56220971 55.03238801 38.93450369 52.00793799 46.9375 44.6875 C49.9375 42.125 49.9375 42.125 52.0625 42.27734375 C52.990625 42.69693359 52.990625 42.69693359 53.9375 43.125 C54.2675 44.115 54.5975 45.105 54.9375 46.125 C50.28449696 55.17027747 39.04361361 59.45633674 30.23828125 63.3046875 C25.10180051 64.58120934 19.96166878 64.68082039 14.6875 64.875 C13.58664063 64.93042969 12.48578125 64.98585938 11.3515625 65.04296875 C10.30226562 65.08550781 9.25296875 65.12804687 8.171875 65.171875 C6.73666504 65.23133301 6.73666504 65.23133301 5.27246094 65.29199219 C2.9375 65.125 2.9375 65.125 0.9375 63.125 C0.8125 60 0.8125 60 0.9375 57.125 C-0.01125 57.145625 -0.96 57.16625 -1.9375 57.1875 C-5.0625 57.125 -5.0625 57.125 -7.0625 56.125 C-7.3984375 53.3671875 -7.3984375 53.3671875 -7.0625 50.125 C-4.7265625 48.0078125 -4.7265625 48.0078125 -1.6875 46.25 C-0.68976563 45.65445313 0.30796875 45.05890625 1.3359375 44.4453125 C3.9375 43.125 3.9375 43.125 5.9375 43.125 C5.9375 42.465 5.9375 41.805 5.9375 41.125 C0.66073796 40.66477113 -2.0827688 41.91830557 -6.5 44.75 C-7.0669458 45.11246826 -7.6338916 45.47493652 -8.21801758 45.84838867 C-13.54534287 49.31469963 -18.50163121 52.78369681 -22.0625 58.125 C-25.0625 58.4375 -25.0625 58.4375 -28.0625 58.125 C-30.0625 56.125 -30.0625 56.125 -30.3125 53.125 C-30.0625 50.125 -30.0625 50.125 -28.0625 48.125 C-28.7225 47.795 -29.3825 47.465 -30.0625 47.125 C-29.49940698 42.86709115 -28.01615269 40.16450253 -25.625 36.625 C-21.37101117 30.38496756 -21.37101117 30.38496756 -20.0625 23.125 C-20.59359375 23.4859375 -21.1246875 23.846875 -21.671875 24.21875 C-22.37828125 24.6828125 -23.0846875 25.146875 -23.8125 25.625 C-24.50859375 26.0890625 -25.2046875 26.553125 -25.921875 27.03125 C-28.0625 28.125 -28.0625 28.125 -32.0625 28.125 C-32.3925 29.775 -32.7225 31.425 -33.0625 33.125 C-36.77849191 33.32586443 -37.83458445 33.2769437 -41.0625 31.125 C-41.5625 28.75 -41.5625 28.75 -41.0625 26.125 C-37.18560006 22.12303877 -31.94614029 19.72109636 -27.0625 17.125 C-28.361875 16.980625 -29.66125 16.83625 -31 16.6875 C-34.9375 16.25 -34.9375 16.25 -36.0625 15.125 C-36.10330783 13.12541636 -36.10504356 11.12454746 -36.0625 9.125 C-28.93299629 7.22379901 -22.42509293 6.90075859 -15.0625 7.125 C-14.7325 7.785 -14.4025 8.445 -14.0625 9.125 C-13.10150391 8.13306641 -13.10150391 8.13306641 -12.12109375 7.12109375 C-4.17551179 -0.63502575 -4.17551179 -0.63502575 0 0 Z M2.38671875 19.5703125 C-0.0625 20.125 -0.0625 20.125 -2.48046875 20.1796875 C-5.27428291 20.33879919 -6.71115111 20.56644307 -9.0625 22.125 C-11.06587958 25.808069 -12.46697564 29.4548248 -13.7734375 33.42578125 C-14.90767466 36.68069819 -16.17058608 39.26500147 -18.0625 42.125 C-14.36862992 40.74125924 -11.04615268 39.06478201 -7.640625 37.078125 C-6.10148437 36.1809375 -6.10148437 36.1809375 -4.53125 35.265625 C-3.4690625 34.64171875 -2.406875 34.0178125 -1.3125 33.375 C-0.26578125 32.7665625 0.7809375 32.158125 1.859375 31.53125 C11.12003888 26.17110953 11.12003888 26.17110953 19.9375 20.125 C19.9375 19.795 19.9375 19.465 19.9375 19.125 C13.75229352 18.15115898 8.47844377 18.02108259 2.38671875 19.5703125 Z M2.6171875 53.21484375 C0.71738303 54.95138094 0.71738303 54.95138094 0.9375 57.125 C4.41163995 55.81882812 7.52136629 54.29524069 10.6953125 52.375 C11.56800781 51.8490625 12.44070312 51.323125 13.33984375 50.78125 C14.68755859 49.96140625 14.68755859 49.96140625 16.0625 49.125 C16.96871094 48.5784375 17.87492187 48.031875 18.80859375 47.46875 C22.22419695 45.40420762 25.61627181 43.33915213 28.9375 41.125 C28.9375 40.465 28.9375 39.805 28.9375 39.125 C20.13355885 39.125 8.95317885 47.50818487 2.6171875 53.21484375 Z " fill="#D1D1D1" transform="translate(148.0625,331.875)"/>
<path d="M0 0 C3.82217732 -0.66472649 5.9156802 -0.66626879 9.26953125 1.39453125 C14.59411175 5.61806764 19.54833523 10.28613259 24.52026367 14.91552734 C28.46693994 18.57460448 32.58152423 21.9570762 36.84375 25.24609375 C39.08620739 27.07012159 41.12806019 28.7919619 43 31 C43 32.32 43 33.64 43 35 C43.99 34.979375 44.98 34.95875 46 34.9375 C50.8759663 35.62982787 53.21498349 38.86904285 56.19921875 42.53125 C60.75655198 48.7790474 62.55546513 53.22348821 62 61 C59.7578125 61.328125 59.7578125 61.328125 57 61 C54.8671875 58.734375 54.8671875 58.734375 52.875 55.75 C52.21242188 54.77546875 51.54984375 53.8009375 50.8671875 52.796875 C50.25101562 51.87390625 49.63484375 50.9509375 49 50 C48.00997249 48.65924525 47.01405257 47.32267727 46 46 C41.40798717 46.60582961 37.70182217 48.49988596 33.6875 50.6875 C33.02395508 51.04618164 32.36041016 51.40486328 31.67675781 51.77441406 C23.16735057 56.35499892 23.16735057 56.35499892 16.484375 63.14453125 C15 65 15 65 12 65.4375 C9 65 9 65 7.0625 63.8125 C6 62 6 62 6.1953125 59.56640625 C7.1764503 56.43724345 8.04809385 55.80854825 10.8125 54.125 C11.61171875 53.63 12.4109375 53.135 13.234375 52.625 C14.14703125 52.08875 15.0596875 51.5525 16 51 C17.07765625 50.360625 18.1553125 49.72125 19.265625 49.0625 C22.167295 47.35725317 25.0784388 45.67087595 28 44 C26.989375 43.62875 25.97875 43.2575 24.9375 42.875 C21.8639555 41.59848757 19.83218549 40.04847045 17.4375 37.75 C14.63196552 35.20193597 14.63196552 35.20193597 10.75 34.9375 C8.01474146 35.99430444 6.94153994 36.90427895 5 39 C5.69867188 39.18175781 6.39734375 39.36351562 7.1171875 39.55078125 C8.48230469 39.92783203 8.48230469 39.92783203 9.875 40.3125 C10.77992188 40.55613281 11.68484375 40.79976563 12.6171875 41.05078125 C15 42 15 42 17 45 C16.625 47.6875 16.625 47.6875 16 50 C9.51527007 49.26309887 3.30760257 47.64681249 -3 46 C-2.938125 47.11375 -2.87625 48.2275 -2.8125 49.375 C-2.8266811 57.38732067 -5.78952855 64.32132115 -10 71 C-11.98 71 -13.96 71 -16 71 C-15.88366642 69.47847921 -15.7564113 67.95779277 -15.625 66.4375 C-15.55539063 65.59058594 -15.48578125 64.74367188 -15.4140625 63.87109375 C-15 61 -15 61 -14 57.71875 C-12.85026037 53.44315575 -12.5561163 49.46589012 -12.375 45.0625 C-12.33632812 44.28326172 -12.29765625 43.50402344 -12.2578125 42.70117188 C-12.16455873 40.80112621 -12.08124038 38.90059722 -12 37 C-12.74765625 37.5053125 -13.4953125 38.010625 -14.265625 38.53125 C-15.74289063 39.50578125 -15.74289063 39.50578125 -17.25 40.5 C-18.71179688 41.47453125 -18.71179688 41.47453125 -20.203125 42.46875 C-23 44 -23 44 -27 44 C-27 45.65 -27 47.3 -27 49 C-32.43806647 49.36253776 -32.43806647 49.36253776 -34.9375 47.75 C-36 46 -36 46 -36.0625 44.125 C-33.80824765 39.6164953 -29.42831377 37.0940833 -25 35 C-25.68707031 35.09539062 -26.37414062 35.19078125 -27.08203125 35.2890625 C-27.98308594 35.39992188 -28.88414062 35.51078125 -29.8125 35.625 C-30.70582031 35.74101562 -31.59914062 35.85703125 -32.51953125 35.9765625 C-35 36 -35 36 -38 34 C-38.1875 31.375 -38.1875 31.375 -38 29 C-32.64382314 26.70449563 -28.01075464 25.86734031 -22.1875 25.9375 C-20.72376953 25.95103516 -20.72376953 25.95103516 -19.23046875 25.96484375 C-18.12638672 25.98224609 -18.12638672 25.98224609 -17 26 C-17 27.32 -17 28.64 -17 30 C-16.484375 29.67 -15.96875 29.34 -15.4375 29 C-12.21973488 27.67989123 -9.4429472 27.86757895 -6 28 C-3 34.5 -3 34.5 -3 39 C-2.34 38.67 -1.68 38.34 -1 38 C-1.33 36.35 -1.66 34.7 -2 33 C-0.02 31.35 1.96 29.7 4 28 C1.74123872 24.56668286 0.40552855 23.15207321 -3.5 21.6875 C-7.05968534 20.87150313 -7.05968534 20.87150313 -11 21 C-11.31772575 12.73913043 -11.31772575 12.73913043 -9 10 C-5.875 9.25 -5.875 9.25 -3 9 C-2.01 6.03 -1.02 3.06 0 0 Z M5 10 C3.02 10.99 3.02 10.99 1 12 C1.99 13.485 1.99 13.485 3 15 C3.66 15 4.32 15 5 15 C5.33 15.99 5.66 16.98 6 18 C8.13918622 20.01036785 8.13918622 20.01036785 10.8125 22.0625 C11.79476562 22.85398437 12.77703125 23.64546875 13.7890625 24.4609375 C15.97361303 26.19966139 18.18097357 27.90510729 20.3984375 29.6015625 C21.49496795 30.4633174 22.5913265 31.32529109 23.6875 32.1875 C24.70199219 32.96480469 25.71648437 33.74210937 26.76171875 34.54296875 C29 37 29 37 29.33203125 40.30078125 C29.16767578 41.63689453 29.16767578 41.63689453 29 43 C32.93673644 41.68775452 35.22719294 40.08089673 38 37 C37.55011719 36.68289063 37.10023438 36.36578125 36.63671875 36.0390625 C30.34083754 31.4717098 24.71453193 26.26404328 19 21 C14.52689726 16.94264175 10.12685179 13.20428237 5 10 Z " fill="#D1D1D1" transform="translate(211,280)"/>
<path d="M0 0 C3.81257933 0.32270925 5.0480733 1.18295856 7.91796875 3.6484375 C8.77777344 4.37804687 9.63757813 5.10765625 10.5234375 5.859375 C14.21837452 9.15442707 17.87645178 12.48759836 21.51953125 15.83984375 C24.76455813 18.75288661 28.14137264 21.45190311 31.56640625 24.1484375 C39.61576287 30.56903867 47.37646548 37.33540512 54.99609375 44.2578125 C58.02470552 46.98991683 61.11944172 49.63582763 64.23046875 52.2734375 C63.90046875 53.9234375 63.57046875 55.5734375 63.23046875 57.2734375 C59.21133691 57.87630728 56.83450152 57.33374965 53.60546875 55.0234375 C49.86739015 52.02294913 46.57503233 48.63227354 43.23046875 45.2109375 C38.88057739 40.77749888 34.93620338 36.92955535 29.23046875 34.2734375 C24.80981935 34.2734375 22.57998154 35.52205199 19.23046875 38.2734375 C18.57046875 38.2734375 17.91046875 38.2734375 17.23046875 38.2734375 C16.90046875 39.2634375 16.57046875 40.2534375 16.23046875 41.2734375 C14.25046875 41.2734375 12.27046875 41.2734375 10.23046875 41.2734375 C10.38902344 41.76972656 10.54757812 42.26601563 10.7109375 42.77734375 C13.06560714 54.09038059 11.88514743 67.69693607 5.79296875 77.61328125 C4.23046875 79.2734375 4.23046875 79.2734375 1.04296875 79.5234375 C0.11484375 79.4409375 -0.81328125 79.3584375 -1.76953125 79.2734375 C-1.26826609 74.26078591 -0.6191015 69.35337231 0.29296875 64.3984375 C1.29112519 58.64609891 1.43684084 53.09771662 1.23046875 47.2734375 C-6.90071956 50.69916514 -6.90071956 50.69916514 -13.64453125 56.1484375 C-15.76953125 58.2734375 -15.76953125 58.2734375 -18.95703125 58.7734375 C-19.88515625 58.6084375 -20.81328125 58.4434375 -21.76953125 58.2734375 C-23.76953125 55.2734375 -23.76953125 55.2734375 -23.61279297 53.25634766 C-22.56530575 50.79320602 -21.49871813 50.01578582 -19.27734375 48.546875 C-18.57222656 48.0725 -17.86710937 47.598125 -17.140625 47.109375 C-16.39941406 46.62726563 -15.65820312 46.14515625 -14.89453125 45.6484375 C-14.16105469 45.15859375 -13.42757813 44.66875 -12.671875 44.1640625 C-10.71100703 42.85681719 -8.74162599 41.56364814 -6.76953125 40.2734375 C-5.77953125 39.6134375 -4.78953125 38.9534375 -3.76953125 38.2734375 C-4.42953125 36.2934375 -5.08953125 34.3134375 -5.76953125 32.2734375 C-11.06317675 33.7041525 -15.54203791 36.25262868 -20.28125 38.93359375 C-22.76953125 40.2734375 -22.76953125 40.2734375 -25.76953125 41.2734375 C-26.98823054 43.77791266 -26.98823054 43.77791266 -27.76953125 46.2734375 C-30.57315888 46.50075866 -32.23139642 46.61425622 -34.64453125 45.0859375 C-35.76953125 43.2734375 -35.76953125 43.2734375 -35.58984375 40.859375 C-34.01086307 35.88182638 -29.0182592 33.91127333 -24.76953125 31.2734375 C-24.09599609 30.84740234 -23.42246094 30.42136719 -22.72851562 29.98242188 C-20.50323703 28.58146732 -18.26438024 27.20528569 -16.01953125 25.8359375 C-15.29894531 25.38645752 -14.57835937 24.93697754 -13.8359375 24.47387695 C-9.74390327 22.03595869 -6.66965806 20.33706269 -1.76953125 21.2734375 C0.27734375 22.8828125 0.27734375 22.8828125 1.98046875 25.0234375 C2.5528125 25.71953125 3.12515625 26.415625 3.71484375 27.1328125 C5.12234212 29.12072257 6.21533448 31.06402761 7.23046875 33.2734375 C11.72843988 31.58669832 15.95933177 29.45669858 20.23046875 27.2734375 C11.67247031 17.36451712 11.67247031 17.36451712 0.4375 11.83984375 C-2.00801397 11.83639451 -4.34652005 11.95475335 -6.76953125 12.2734375 C-6.29447447 10.45985596 -5.81437083 8.64759571 -5.33203125 6.8359375 C-5.06519531 5.82660156 -4.79835938 4.81726563 -4.5234375 3.77734375 C-3.48985219 0.34455522 -3.48985219 0.34455522 0 0 Z " fill="#D0D0D0" transform="translate(283.76953125,236.7265625)"/>
<path d="M0 0 C-1.33257127 3.99771381 -3.86192274 5.24311333 -7.25 7.4375 C-8.24495483 8.09165894 -8.24495483 8.09165894 -9.26000977 8.7590332 C-15.56535756 12.84023681 -22.08405291 16.52078812 -28.62866211 20.20068359 C-35.3083014 23.9771874 -41.82794204 27.96123469 -48.3125 32.0625 C-57.76461342 38.03295042 -67.31508362 43.8095013 -76.9375 49.5 C-77.61730927 49.902117 -78.29711853 50.30423401 -78.99752808 50.71853638 C-81.71426535 52.32521069 -84.43121813 53.93151928 -87.14860535 55.53709412 C-93.57195686 59.3338669 -99.97688331 63.16083203 -106.375 67 C-107.38336914 67.60416748 -108.39173828 68.20833496 -109.43066406 68.83081055 C-114.08354105 71.62415072 -118.72189076 74.437388 -123.33203125 77.30078125 C-124.15719238 77.81189453 -124.98235352 78.32300781 -125.83251953 78.84960938 C-127.34094961 79.78663125 -128.84615844 80.72887101 -130.34716797 81.67773438 C-134.14091846 84.03533862 -137.65872659 85.77796192 -142 87 C-142.5625 84.375 -142.5625 84.375 -142 81 C-140.28613281 79.54467773 -140.28613281 79.54467773 -138.015625 78.12109375 C-136.78307983 77.34040527 -136.78307983 77.34040527 -135.52563477 76.54394531 C-134.69217529 76.03444336 -133.85871582 75.52494141 -133 75 C-131.92866821 74.34016113 -131.92866821 74.34016113 -130.83569336 73.66699219 C-128.62866278 72.32480636 -126.4098158 71.00421282 -124.1875 69.6875 C-122.42015391 68.63351478 -120.65325249 67.57878369 -118.88671875 66.5234375 C-117.94103027 65.95850586 -116.9953418 65.39357422 -116.02099609 64.81152344 C-110.50033131 61.50108763 -105.0006567 58.15602898 -99.5 54.8125 C-98.30363413 54.08552307 -97.10726366 53.35855372 -95.91088867 52.6315918 C-93.48343882 51.15645124 -91.05613727 49.68106699 -88.62890625 48.20556641 C-83.33363048 44.98685198 -78.03635824 41.77142638 -72.73919678 38.55581665 C-71.00071832 37.50043607 -69.26230949 36.44494092 -67.52392578 35.3894043 C-62.18092424 32.14518155 -56.83773025 28.90127736 -51.49369812 25.65875244 C-49.6578912 24.54479893 -47.82223105 23.43060384 -45.98657227 22.31640625 C-43.60756334 20.87252107 -41.22777847 19.42992735 -38.84741211 17.98828125 C-33.68683725 14.86087036 -28.53544715 11.72104957 -23.41796875 8.5234375 C-22.58668457 8.0063623 -21.75540039 7.48928711 -20.89892578 6.95654297 C-19.3997474 6.02194545 -17.90426931 5.08137066 -16.41357422 4.13330078 C-10.71880919 0.59011076 -6.61172044 -0.15376094 0 0 Z " fill="#FFFFFF" transform="translate(155,10)"/>
<path d="M0 0 C6.36694292 3.84037827 11.90827636 8.39033847 17.49047852 13.26049805 C21.58838231 16.8236787 25.76988343 20.23703965 30.0625 23.5625 C35.25523426 27.59107076 40.31314042 31.74551269 45.31225586 36.01147461 C50.47802143 40.41954194 55.73144321 44.71542367 61 49 C71.10883836 57.25243131 81.177366 65.55363306 91.24804688 73.85253906 C99.82024874 80.91618313 108.39576418 87.97537551 117 95 C113.19703138 95 112.38604975 93.96597974 109.5 91.5625 C108.60410156 90.82386719 107.70820312 90.08523438 106.78515625 89.32421875 C105.86605469 88.55722656 104.94695312 87.79023438 104 87 C102.31340708 85.62388752 100.62588792 84.24890956 98.9375 82.875 C90.52986644 75.98097698 82.14271211 69.06200038 73.75195312 62.14746094 C66.15658693 55.88874652 58.55878647 49.6333987 50.9375 43.40625 C47.11888819 40.27823819 43.30952764 37.13906406 39.5 34 C29.17994812 25.49941177 18.83227968 17.0403867 8.3828125 8.69921875 C7.80821289 8.23821777 7.23361328 7.7772168 6.64160156 7.30224609 C5.12967514 6.10286841 3.59318624 4.93462778 2.0546875 3.76953125 C1.37664063 3.18558594 0.69859375 2.60164063 0 2 C0 1.34 0 0.68 0 0 Z " fill="#010101" transform="translate(13,409)"/>
</svg>
