<?xml version="1.0" encoding="UTF-8"?>
<svg version="1.1" xmlns="http://www.w3.org/2000/svg" width="100%" height="100%" viewBox="0 0 512 512">
<path d="M0 0 C0.21680989 2.8998323 0.37461435 5.78347867 0.5 8.6875 C0.56703125 9.50412109 0.6340625 10.32074219 0.703125 11.16210938 C0.78377458 13.65216519 0.71534481 15.60999594 0 18 C-2.31642944 20.36133041 -5.03874893 21.58625916 -8 23 C-9.56307878 23.88701409 -11.12023869 24.78452475 -12.671875 25.69140625 C-14.36409613 26.6492987 -16.05682677 27.60629148 -17.75 28.5625 C-33.17053589 37.32731436 -48.30120237 46.56175811 -63.4440918 55.79516602 C-70.31624765 59.9832901 -77.2098727 64.13393546 -84.11621094 68.26538086 C-90.59261384 72.14427909 -97.04306684 76.06486509 -103.49075317 79.99127197 C-104.07130463 80.34477722 -104.65185608 80.69828247 -105.25 81.0625 C-105.83079315 81.41616638 -106.4115863 81.76983276 -107.00997925 82.13421631 C-117.57440308 88.56321885 -128.20287602 94.88067146 -138.84631348 101.17776489 C-146.52370614 105.7219593 -154.17373124 110.29305845 -161.70141602 115.08251953 C-168.93465956 119.64955474 -176.32475367 123.95893735 -183.6875 128.3125 C-193.54259604 134.14049365 -203.35306639 140.02136155 -213.06494141 146.08618164 C-220.51320403 150.7262617 -228.032529 155.24439283 -235.5625 159.75 C-245.43471632 165.65810721 -255.29377512 171.58639234 -265.125 177.5625 C-265.69566193 177.90932831 -266.26632385 178.25615662 -266.85427856 178.61349487 C-270.31613003 180.71770238 -273.7773431 182.82295817 -277.23840332 184.9284668 C-282.0605263 187.86163813 -286.88370176 190.79307733 -291.70748901 193.72351074 C-292.89857258 194.44711981 -294.0895927 195.17083332 -295.2805481 195.89465332 C-302.69005561 200.39739253 -310.11678975 204.86987812 -317.5625 209.3125 C-325.14845244 213.84037997 -332.63780016 218.5095133 -340.08813477 223.25708008 C-340.83506592 223.73298584 -341.58199707 224.2088916 -342.3515625 224.69921875 C-343.00979004 225.12033936 -343.66801758 225.54145996 -344.34619141 225.9753418 C-350.07262199 229.52329414 -358.43878535 228.90631889 -365 228 C-367.43423192 226.87618935 -368.60036711 225.80995313 -370.36328125 223.8203125 C-372.37245936 221.58576119 -374.58958353 220.08070574 -377.0625 218.375 C-382.15913945 214.71962334 -386.87235271 210.74810467 -391.59594727 206.63427734 C-395.63839561 203.12793217 -399.76797505 199.77432262 -404 196.5 C-409.39776336 192.31965263 -414.59556807 187.9560804 -419.75 183.48046875 C-423.74367368 180.03057653 -427.82811252 176.73140754 -432 173.5 C-437.48764822 169.24884234 -442.78223967 164.8157984 -448.02905273 160.27172852 C-452.08995283 156.76013997 -456.23383424 153.38008085 -460.44921875 150.0546875 C-463.47661493 147.61608047 -466.42307986 145.09141437 -469.375 142.5625 C-474.66806675 138.03604247 -480.12497362 133.8059749 -485.734375 129.6796875 C-488 128 -488 128 -489 127 C-489.08651611 125.58429877 -489.10704904 124.164405 -489.09765625 122.74609375 C-489.09443359 121.89208984 -489.09121094 121.03808594 -489.08789062 120.15820312 C-489.07951172 119.26037109 -489.07113281 118.36253906 -489.0625 117.4375 C-489.05798828 116.53580078 -489.05347656 115.63410156 -489.04882812 114.70507812 C-489.03700225 112.46998686 -489.0205222 110.23502563 -489 108 C-483.81992734 110.76446063 -479.56332348 113.85398986 -475.1875 117.75 C-473.95682563 118.82547474 -472.72504997 119.89969053 -471.4921875 120.97265625 C-470.89631836 121.49230957 -470.30044922 122.01196289 -469.68652344 122.54736328 C-466.66251503 125.15200284 -463.53206714 127.61837721 -460.40234375 130.09375 C-456.9388416 132.84202487 -453.5271985 135.65229191 -450.109375 138.45703125 C-447.81410347 140.33792053 -445.51038319 142.20805404 -443.203125 144.07421875 C-436.26619415 149.6870324 -429.37238261 155.33880461 -422.57592773 161.12109375 C-416.20537656 166.53729589 -409.71542737 171.80374643 -403.21484375 177.0625 C-396.80132127 182.25506236 -390.4080699 187.46234513 -384.125 192.8125 C-379.57027021 196.68967815 -374.9831422 200.5146184 -370.2734375 204.203125 C-368.77295839 205.38907069 -367.29773418 206.60777914 -365.8515625 207.859375 C-362.66691969 210.51934486 -360.89711592 211.93229314 -356.6875 212.25 C-347.65024557 209.18652392 -339.46638665 203.54705822 -331.375 198.5625 C-329.34548819 197.31960011 -327.31552462 196.07743765 -325.28515625 194.8359375 C-324.24762207 194.20139648 -323.21008789 193.56685547 -322.14111328 192.91308594 C-317.04769938 189.81095697 -311.93012589 186.74946287 -306.8125 183.6875 C-294.35909382 176.22984093 -281.95077008 168.69917162 -269.54833984 161.15722656 C-264.28287378 157.9555888 -259.01483618 154.75818677 -253.74697876 151.56048584 C-250.83121261 149.7904994 -247.91561488 148.0202356 -245 146.25 C-243.83333414 145.54166534 -242.66666747 144.83333201 -241.5 144.125 C-240.9225 143.774375 -240.345 143.42375 -239.75 143.0625 C-234.50000001 139.875 -234.50000001 139.875 -232.74993896 138.81246948 C-231.58346801 138.10425062 -230.41700479 137.39601901 -229.25054932 136.68777466 C-226.33095156 134.91508535 -223.41121906 133.14261874 -220.49121094 131.37060547 C-215.27604109 128.20547742 -210.06175461 125.0389519 -204.85266113 121.86383057 C-191.27641575 113.58885491 -177.6540559 105.39881244 -163.97216797 97.29959106 C-153.18398959 90.91193096 -142.44630313 84.4458928 -131.73876953 77.92407227 C-125.13355718 73.90113873 -118.51489561 69.9028898 -111.875 65.9375 C-104.31405057 61.41850852 -96.80784943 56.81438163 -89.3125 52.1875 C-79.76549549 46.29509889 -70.1761243 40.47987069 -60.54736328 34.72216797 C-53.17591376 30.31224482 -45.82555714 25.86902676 -38.48623657 21.40594482 C-36.70641516 20.32399845 -34.92595882 19.24310533 -33.14526367 18.16259766 C-27.72097929 14.87083459 -22.30063669 11.57299672 -16.890625 8.2578125 C-15.07303712 7.15084387 -13.2553365 6.0440603 -11.4375 4.9375 C-10.61660889 4.43065674 -9.79571777 3.92381348 -8.94995117 3.40161133 C-8.20205322 2.94810303 -7.45415527 2.49459473 -6.68359375 2.02734375 C-6.03962646 1.63281006 -5.39565918 1.23827637 -4.73217773 0.83178711 C-3 0 -3 0 0 0 Z " fill="#81B1B4" transform="translate(502,284)"/>
<path d="M0 0 C1.00283319 6.01699916 1.85566493 12.070696 0 18 C-4.06122906 22.14727205 -8.80012525 24.14308022 -14.02832031 26.54736328 C-19.40755979 29.17687978 -24.51034091 32.30414153 -29.65188599 35.36526489 C-31.56827839 36.50343185 -33.49000647 37.63199383 -35.41381836 38.75756836 C-42.36399855 42.825676 -49.25992899 46.96294154 -56.06274414 51.27368164 C-68.80676155 59.33178326 -81.8333214 66.94668071 -94.80859375 74.625 C-110.63062146 83.98979867 -126.36172982 93.47392299 -141.99755859 103.14746094 C-149.61554319 107.84784044 -157.27219195 112.48522884 -164.92333984 117.13134766 C-167.67155045 118.8005116 -170.41907822 120.47079378 -173.16633606 122.14152527 C-188.36514895 131.38410788 -203.58810876 140.58466344 -218.85888672 149.70800781 C-230.47363164 156.64786027 -242.05619509 163.63155775 -253.5625 170.75 C-263.94311131 177.16817918 -274.40846433 183.42995364 -284.91275024 189.64273071 C-294.56089515 195.34987014 -304.17542849 201.10773661 -313.75 206.9375 C-314.32547577 207.28789337 -314.90095154 207.63828674 -315.49386597 207.9992981 C-316.34562912 208.51796951 -316.34562912 208.51796951 -317.21459961 209.04711914 C-326.51213328 214.70868554 -335.81691291 220.36036335 -345.18701172 225.90136719 C-346.7096836 226.82407436 -348.19081033 227.814857 -349.66015625 228.8203125 C-352.77562173 230.39104802 -354.5476674 230.56078499 -358 230 C-360.31873297 228.39925034 -362.20991128 226.89666919 -364.25 225 C-365.39219651 223.98451438 -366.53543612 222.97020087 -367.6796875 221.95703125 C-368.24010742 221.45381348 -368.80052734 220.9505957 -369.37792969 220.43212891 C-371.64389357 218.43150517 -374.00056446 216.55727722 -376.375 214.6875 C-379.78340354 211.99171244 -383.09743341 209.22621013 -386.33203125 206.32421875 C-388.05182355 204.89305526 -388.05182355 204.89305526 -390.37890625 203.62109375 C-393.3104353 201.80800201 -395.61473365 199.73539971 -398.125 197.375 C-403.57576743 192.3451973 -409.22382206 187.64876172 -415 183 C-417.66856859 180.83567285 -420.3340571 178.66756003 -423 176.5 C-424.38669725 175.37367145 -425.77341562 174.24736889 -427.16015625 173.12109375 C-433.45997194 168.00220519 -439.74808828 162.86955743 -445.99609375 157.6875 C-453.56213959 151.41988085 -461.17752834 145.26204665 -468.99609375 139.3125 C-473.75336584 135.65020471 -478.38187909 131.83538855 -483 128 C-484.08667969 127.27039063 -485.17335938 126.54078125 -486.29296875 125.7890625 C-489.11183481 122.88477626 -489.39899513 122.54048243 -489.5859375 118.79296875 C-489.54637725 117.25671241 -489.47526181 115.72099148 -489.375 114.1875 C-489.34792969 113.39923828 -489.32085937 112.61097656 -489.29296875 111.79882812 C-489.22263676 109.86469843 -489.11502458 107.93198696 -489 106 C-481.97745542 108.75049663 -477.50920964 112.22085115 -472.375 117.75 C-470.90383382 119.25659086 -470.90383382 119.25659086 -468 120 C-466.64426252 121.31054623 -465.31387169 122.64748503 -464 124 C-462.34431791 125.34694929 -460.67657023 126.67914126 -459 128 C-451.29482564 134.11199921 -443.6982756 140.34923752 -436.11328125 146.609375 C-432.83532249 149.3142327 -429.54587 152.00447845 -426.25 154.6875 C-422.90879536 157.41388267 -419.60580103 160.17874871 -416.32543945 162.97753906 C-411.32154602 167.24677234 -406.25943237 171.40494728 -401.0625 175.4375 C-395.53011852 179.730344 -390.19476992 184.21106986 -384.90307617 188.79614258 C-381.12285478 192.06342933 -377.27369786 195.19121694 -373.28515625 198.203125 C-371.48135734 199.62149679 -369.72843333 201.10455986 -367.99609375 202.609375 C-367.46902832 203.06618652 -366.94196289 203.52299805 -366.39892578 203.99365234 C-364.88997883 205.3075369 -363.39193928 206.63391726 -361.89453125 207.9609375 C-358.69025205 210.21820301 -356.90461524 210.9439285 -353 211 C-350.13598976 210.03861562 -350.13598976 210.03861562 -347.3125 208.3125 C-346.75473877 207.99635742 -346.19697754 207.68021484 -345.62231445 207.35449219 C-340.08292305 204.16339447 -334.71301799 200.68852619 -329.33154297 197.24047852 C-321.47155363 192.23088986 -313.46295536 187.4874602 -305.4375 182.75 C-295.48919308 176.87378594 -285.57861617 170.9501414 -275.75 164.875 C-274.70207275 164.22732666 -273.65414551 163.57965332 -272.57446289 162.91235352 C-271.52637451 162.26451904 -270.47828613 161.61668457 -269.3984375 160.94921875 C-252.02972579 150.21457538 -234.53355002 139.69776027 -216.96466064 129.29483032 C-204.06857603 121.65713089 -191.24658273 113.90246882 -178.44873047 106.1015625 C-172.57335264 102.52050708 -166.69325734 98.94721233 -160.8125 95.375 C-160.22980347 95.02097107 -159.64710693 94.66694214 -159.04675293 94.30218506 C-149.85964087 88.72149434 -140.64822925 83.18210076 -131.42626953 77.65917969 C-120.10427531 70.87348708 -108.82645528 64.0154694 -97.54833984 57.15722656 C-91.11902261 53.24791548 -84.68610911 49.34452343 -78.25384521 45.44006348 C-76.50644712 44.37935039 -74.75907327 43.31859737 -73.01171875 42.2578125 C-72.434823 41.90759033 -71.85792725 41.55736816 -71.2635498 41.1965332 C-67.73268074 39.0527473 -64.20266573 36.90756235 -60.67327881 34.76133728 C-45.71501226 25.66527098 -30.74419478 16.59115376 -15.70605469 7.62744141 C-13.85429856 6.5137815 -12.01153323 5.38507178 -10.17675781 4.24365234 C-8.84016113 3.41728271 -8.84016113 3.41728271 -7.4765625 2.57421875 C-6.68588379 2.07881592 -5.89520508 1.58341309 -5.08056641 1.07299805 C-3 0 -3 0 0 0 Z " fill="#80B1B4" transform="translate(502,222)"/>
<path d="M0 0 C3.01517867 2.7280188 3.8484574 4.07180154 4.5 8.0625 C3.87057685 11.760361 2.956885 12.73402113 0 15 C-3.234375 15.390625 -3.234375 15.390625 -6.75 15.25 C-7.92046875 15.21390625 -9.0909375 15.1778125 -10.296875 15.140625 C-11.18890625 15.09421875 -12.0809375 15.0478125 -13 15 C-13 13.68 -13 12.36 -13 11 C-7.555 10.01 -7.555 10.01 -2 9 C-2 7.68 -2 6.36 -2 5 C-14.97804674 1.53918754 -29.58007101 5.60483976 -41 12 C-41.66 12 -42.32 12 -43 12 C-43.33 13.32 -43.66 14.64 -44 16 C-44.66 16 -45.32 16 -46 16 C-45.21545812 19.92270942 -44.60522024 21.58734984 -41.25 23.875 C-28.7006064 28.1586029 -15.08995867 23.38414584 -2.9375 20 C-1.07798291 19.49662747 0.78196747 18.99485301 2.64233398 18.49462891 C11.0668841 16.22026273 19.47090054 13.87202119 27.875 11.5234375 C28.54285019 11.33734924 29.21070038 11.15126099 29.89878845 10.95953369 C32.94597854 10.10995094 35.99002058 9.25169007 39.02954102 8.375 C54.49725315 3.99011969 54.49725315 3.99011969 60.5625 6.4375 C61.366875 6.953125 62.17125 7.46875 63 8 C63 9.65 63 11.3 63 13 C59.05816339 14.37673499 55.18774024 15.46382624 51.09765625 16.296875 C49.97004883 16.53067871 48.84244141 16.76448242 47.68066406 17.00537109 C46.48666992 17.25109863 45.29267578 17.49682617 44.0625 17.75 C31.25955453 20.43113086 18.61634553 23.5521235 6 27 C6.63502441 27.11069824 7.27004883 27.22139648 7.92431641 27.33544922 C10.8253933 27.8439181 13.72518313 28.35939574 16.625 28.875 C17.62402344 29.04902344 18.62304688 29.22304688 19.65234375 29.40234375 C24.58515152 30.28436898 29.29466239 31.21743183 34 33 C34 34.98 34 36.96 34 39 C33.29504395 39.19110352 32.59008789 39.38220703 31.86376953 39.57910156 C28.61582005 40.46330992 25.37043123 41.35659477 22.125 42.25 C21.01640625 42.55035156 19.9078125 42.85070313 18.765625 43.16015625 C12.6906098 44.83971928 6.88537717 46.70678071 1.11669922 49.25683594 C-1 50 -1 50 -5 50 C-5 51.65 -5 53.3 -5 55 C-4.42217773 54.84313721 -3.84435547 54.68627441 -3.24902344 54.5246582 C-1.14020154 54.03270659 0.82894157 53.77545805 2.984375 53.60546875 C10.94361876 52.91142202 18.59539122 52.0609228 26.3125 49.9375 C36.84682866 47.08257269 48.44568259 45.25491963 59 49 C62.78772401 51.19846918 65.46856645 53.32394035 66.8125 57.5625 C65.56095001 61.31714996 63.19180924 62.79028591 60 65 C51.01489201 68.02020437 40.72860545 65.86571685 32 63 C31.27683594 62.63261719 30.55367188 62.26523438 29.80859375 61.88671875 C27.18758545 60.60168877 25.74246625 61.13043753 23 62 C21.32983484 62.99414593 19.66279327 63.9935725 18 65 C17.01 65 16.02 65 15 65 C15 67.31 15 69.62 15 72 C16.59802902 72.51928216 18.20401258 73.01407932 19.8125 73.5 C20.70582031 73.7784375 21.59914063 74.056875 22.51953125 74.34375 C32.09944066 76.15006289 40.50629431 74.43068952 49.8125 72 C63.12317883 68.75321848 75.24615589 66.25062055 88 73 C90.86665778 75.49302598 91.92153723 77.07806245 92.25 80.9375 C92 84 92 84 90.625 85.8125 C87.43650111 88.14255688 85.28054396 88.1079133 81.375 88.0625 C79.87066406 88.04896484 79.87066406 88.04896484 78.3359375 88.03515625 C77.56507813 88.02355469 76.79421875 88.01195313 76 88 C76 86.68 76 85.36 76 84 C79.3 83.01 82.6 82.02 86 81 C86 79.68 86 78.36 86 77 C73.40219643 74.89562649 61.42131222 77.38245242 50 83 C48.32269457 84.31992501 46.65370429 85.65062323 45 87 C44.34 87 43.68 87 43 87 C43 89.64 43 92.28 43 95 C45.03264969 95.57457879 47.07709994 96.10739889 49.125 96.625 C50.26195312 96.92664063 51.39890625 97.22828125 52.5703125 97.5390625 C63.97193088 99.3565333 76.18600805 94.74896755 86.98413086 91.48944092 C91.16893777 90.22814786 95.36472821 89.00419887 99.55859375 87.7734375 C100.37943451 87.53158722 101.20027527 87.28973694 102.04598999 87.04055786 C141.23247495 75.49932269 141.23247495 75.49932269 148.8671875 79.50390625 C149.57101562 79.99761719 150.27484375 80.49132812 151 81 C150.67 82.65 150.34 84.3 150 86 C149.39341553 86.08975098 148.78683105 86.17950195 148.16186523 86.27197266 C130.38390852 88.94958669 113.26049547 93.02784081 96 98 C96.95519531 98.02578125 97.91039062 98.0515625 98.89453125 98.078125 C108.18954524 98.48588234 117.86319119 99.03963554 125.25 105.4375 C127 108 127 108 127.3125 110.625 C125.64619662 113.64021564 123.80223922 114.48367524 120.5625 115.49609375 C111.93891142 117.19189089 103.94492973 116.12515599 95.65625 113.4609375 C92.40620458 112.89695903 90.88431039 113.46954959 88 115 C83.73612319 119.02699476 83.38029103 122.39070732 83 128 C91.76478996 128.36351663 100.66553398 127.63470091 109.1796875 125.4375 C112.1012959 124.73531086 115.01195889 124.94253767 118 125 C118 126.32 118 127.64 118 129 C116.10546779 129.64964023 114.20931351 130.29455115 112.3125 130.9375 C111.25675781 131.29714844 110.20101562 131.65679687 109.11328125 132.02734375 C99.78761764 134.94088232 89.00105941 135.59404735 79.7734375 131.9921875 C76.39132534 130.09999259 74.68840919 127.37681838 73 124 C72.7326315 119.89756452 73.06239285 116.34087905 75.453125 112.921875 C79.8304661 108.39227855 83.27708642 106.23473393 89.625 105.6875 C94.06219647 105.78796483 98.0676042 107.01397432 102.30078125 108.265625 C105.86732955 109.23597389 109.32497549 109.65329957 113 110 C113 108.68 113 107.36 113 106 C98.93071352 102.64731897 83.57501166 99.83792947 70.42578125 107.5 C66.5168814 109.99868672 66.5168814 109.99868672 63 113 C59.39251163 113.50104005 58.2154253 113.15319133 55.1875 111 C54.465625 110.34 53.74375 109.68 53 109 C53.33 107.35 53.66 105.7 54 104 C53.35933594 103.84144531 52.71867187 103.68289062 52.05859375 103.51953125 C45.43427861 101.73264445 39.3070873 99.81170946 35.5625 93.625 C34.86180024 90.35506781 34.87645529 87.33570725 35 84 C35 83.01 35 82.02 35 81 C33.72125 81.061875 32.4425 81.12375 31.125 81.1875 C22.8766447 81.14859266 16.35660657 79.02387384 10.27734375 73.40234375 C8.05461082 70.96209568 7.86323197 69.20090403 7.875 66 C7.87113281 64.948125 7.87113281 64.948125 7.8671875 63.875 C8 62 8 62 9 60 C8.07380859 60.05220703 8.07380859 60.05220703 7.12890625 60.10546875 C-0.42600028 60.34694978 -6.64870227 59.23419849 -13 55 C-14.1738321 51.97465955 -14.4063126 49.2125783 -14 46 C-11.08345145 40.85381202 -5.54565237 39.32536317 -0.1875 37.6875 C5.52222214 36.21579622 11.11101813 35.27138165 17 35 C17 34.34 17 33.68 17 33 C4.01959374 32.84648665 -8.91807153 32.73331369 -21.6484375 35.5859375 C-26.78463208 36.49031728 -32.03954416 36.65348528 -37 35 C-37 33.35 -37 31.7 -37 30 C-37.56847656 29.85304687 -38.13695312 29.70609375 -38.72265625 29.5546875 C-44.47893463 27.88257992 -49.20929563 25.80006353 -53 21 C-54.27790026 17.02431031 -54.27920238 14.91206109 -53.0625 10.9375 C-42.68991609 -3.83557405 -15.51491823 -9.64186214 0 0 Z M32 57 C35.73617255 61.2896796 38.35369683 61.81252348 43.8671875 62.203125 C50.07357913 62.29984799 54.52093612 61.9885803 60 59 C60 57.68 60 56.36 60 55 C50.42754323 52.44734486 41.36134946 54.53494246 32 57 Z " fill="#D1D1D1" transform="translate(347,21)"/>
<path d="M0 0 C0.5654649 12.922536 0.5654649 12.922536 -2.66015625 17.203125 C-5.33831465 19.09575152 -8.06230723 20.53809851 -11 22 C-12.31368733 22.71836994 -13.6233443 23.44414117 -14.9296875 24.17578125 C-17.16582852 25.42777533 -19.4036843 26.67480607 -21.65283203 27.90332031 C-27.49706288 31.10314033 -33.16989785 34.52091304 -38.8125 38.0625 C-47.14014543 43.2824663 -55.57079425 48.30380243 -64.0625 53.25 C-83.08132682 64.33701845 -101.8693633 75.78969922 -120.56811523 87.40820312 C-127.01389312 91.40709408 -133.50445171 95.32615181 -140.01660156 99.21582031 C-146.52836872 103.1078245 -153.01193351 107.044763 -159.49084473 110.99118042 C-170.38944953 117.62839369 -181.3321598 124.18641009 -192.3125 130.6875 C-204.35884116 137.82058133 -216.35100785 145.03522981 -228.29199219 152.34375 C-235.82861828 156.95324075 -243.38013775 161.5383869 -250.92773438 166.12988281 C-254.13516003 168.08227319 -257.34101207 170.03723233 -260.546875 171.9921875 C-274.90128554 180.73616796 -289.31298276 189.37752482 -303.78100586 197.93237305 C-304.44155975 198.32326111 -305.10211365 198.71414917 -305.78268433 199.11688232 C-307.02003513 199.84890654 -308.25782195 200.58019444 -309.49612427 201.31060791 C-312.04374757 202.81766579 -314.53602421 204.35734947 -317 206 C-317.99 206 -318.98 206 -320 206 C-320.24506639 203.45251978 -320.42162549 200.92863 -320.5625 198.375 C-320.63791016 197.66214844 -320.71332031 196.94929687 -320.79101562 196.21484375 C-320.8876764 193.87350498 -320.78461917 192.21471727 -320 190 C-317.35869507 187.36380246 -314.27500478 185.74670884 -311 184 C-309.68068481 183.24904053 -309.68068481 183.24904053 -308.3347168 182.48291016 C-305.42597588 180.83447827 -302.49606267 179.22880179 -299.5625 177.625 C-289.56376615 172.09161232 -279.78710397 166.27332566 -270.08178711 160.24243164 C-261.80899979 155.10287577 -253.48405305 150.06017177 -245.125 145.0625 C-234.70667554 138.83014832 -224.31230126 132.56051138 -213.94119263 126.24990845 C-205.66807864 121.216595 -197.37365674 116.22025919 -189.0625 111.25 C-181.60703725 106.78973485 -174.18674231 102.28077196 -166.8125 97.6875 C-157.12900963 91.65755628 -147.35211251 85.78849225 -137.56323242 79.93212891 C-129.06172988 74.84469968 -120.58567433 69.71749195 -112.125 64.5625 C-101.98161088 58.38288201 -91.78506068 52.29764872 -81.5625 46.25 C-71.72675934 40.43115801 -61.94034274 34.5491954 -52.24438477 28.49902344 C-45.72717822 24.4346269 -39.15604668 20.46760091 -32.55175781 16.54638672 C-28.06261696 13.87198596 -23.62178963 11.13849491 -19.21875 8.32421875 C-17.78595703 7.41446289 -17.78595703 7.41446289 -16.32421875 6.48632812 C-14.47632774 5.3093519 -12.63485886 4.12221603 -10.80078125 2.92382812 C-9.96933594 2.39595703 -9.13789063 1.86808594 -8.28125 1.32421875 C-7.54970703 0.85072998 -6.81816406 0.37724121 -6.06445312 -0.1105957 C-3.58690968 -1.17796689 -2.48465013 -0.92544113 0 0 Z " fill="#81B1B4" transform="translate(483,259)"/>
<path d="M0 0 C0.33 0 0.66 0 1 0 C1.21784569 1.38876626 1.37211181 2.78758104 1.5 4.1875 C1.5928125 4.96480469 1.685625 5.74210937 1.78125 6.54296875 C0.454116 10.71680517 -3.30598596 11.98955114 -7 14 C-8.55795233 14.89598763 -10.11522683 15.79315475 -11.671875 16.69140625 C-13.36409613 17.6492987 -15.05682677 18.60629148 -16.75 19.5625 C-32.17053589 28.32731436 -47.30120237 37.56175811 -62.4440918 46.79516602 C-69.31624765 50.9832901 -76.2098727 55.13393546 -83.11621094 59.26538086 C-89.59261384 63.14427909 -96.04306684 67.06486509 -102.49075317 70.99127197 C-103.07130463 71.34477722 -103.65185608 71.69828247 -104.25 72.0625 C-104.83079315 72.41616638 -105.4115863 72.76983276 -106.00997925 73.13421631 C-116.57440308 79.56321885 -127.20287602 85.88067146 -137.84631348 92.17776489 C-145.52370614 96.7219593 -153.17373124 101.29305845 -160.70141602 106.08251953 C-167.93465956 110.64955474 -175.32475367 114.95893735 -182.6875 119.3125 C-192.54259604 125.14049365 -202.35306639 131.02136155 -212.06494141 137.08618164 C-219.51320403 141.7262617 -227.032529 146.24439283 -234.5625 150.75 C-244.43471632 156.65810721 -254.29377512 162.58639234 -264.125 168.5625 C-264.69566193 168.90932831 -265.26632385 169.25615662 -265.85427856 169.61349487 C-269.31613003 171.71770238 -272.7773431 173.82295817 -276.23840332 175.9284668 C-281.0605263 178.86163813 -285.88370176 181.79307733 -290.70748901 184.72351074 C-291.89857258 185.44711981 -293.0895927 186.17083332 -294.2805481 186.89465332 C-301.69005561 191.39739253 -309.11678975 195.86987812 -316.5625 200.3125 C-324.14845244 204.84037997 -331.63780016 209.5095133 -339.08813477 214.25708008 C-339.83506592 214.73298584 -340.58199707 215.2088916 -341.3515625 215.69921875 C-342.00979004 216.12033936 -342.66801758 216.54145996 -343.34619141 216.9753418 C-349.07262199 220.52329414 -357.43878535 219.90631889 -364 219 C-366.43423192 217.87618935 -367.60036711 216.80995313 -369.36328125 214.8203125 C-371.37245936 212.58576119 -373.58958353 211.08070574 -376.0625 209.375 C-381.15913945 205.71962334 -385.87235271 201.74810467 -390.59594727 197.63427734 C-394.63839561 194.12793217 -398.76797505 190.77432262 -403 187.5 C-408.39776336 183.31965263 -413.59556807 178.9560804 -418.75 174.48046875 C-422.74367368 171.03057653 -426.82811252 167.73140754 -431 164.5 C-436.48764822 160.24884234 -441.78223967 155.8157984 -447.02905273 151.27172852 C-451.08995283 147.76013997 -455.23383424 144.38008085 -459.44921875 141.0546875 C-462.47661493 138.61608047 -465.42307986 136.09141437 -468.375 133.5625 C-473.66806675 129.03604247 -479.12497362 124.8059749 -484.734375 120.6796875 C-487 119 -487 119 -488 118 C-488.07179964 116.48071962 -488.08392007 114.95832518 -488.0625 113.4375 C-488.05347656 112.61121094 -488.04445313 111.78492188 -488.03515625 110.93359375 C-488.02355469 110.29550781 -488.01195312 109.65742188 -488 109 C-478.28040897 116.16751965 -468.9735545 123.82882322 -459.66235352 131.51367188 C-454.79244386 135.53101452 -449.90433523 139.52477906 -445 143.5 C-433.73276844 152.6390232 -422.51481697 161.83367061 -411.46459961 171.234375 C-407.51336671 174.58746546 -403.49256186 177.8413029 -399.43359375 181.0625 C-393.50877946 185.77952711 -387.67693248 190.61263082 -381.83984375 195.4375 C-378.19735539 198.44830821 -374.54649725 201.44871366 -370.89111328 204.44384766 C-369.29306567 205.7588432 -367.70583043 207.08696196 -366.12109375 208.41796875 C-365.35925781 209.04316406 -364.59742188 209.66835938 -363.8125 210.3125 C-363.20019531 210.82425781 -362.58789062 211.33601562 -361.95703125 211.86328125 C-359.12763059 213.50670559 -357.30097763 213.95656608 -354 214 C-351.08545296 212.80547525 -348.55538141 211.11301135 -345.9375 209.375 C-344.31647683 208.34233712 -342.69538024 207.30978947 -341.07421875 206.27734375 C-340.23552246 205.7344873 -339.39682617 205.19163086 -338.53271484 204.63232422 C-334.47111675 202.01464108 -330.36033826 199.47769544 -326.25 196.9375 C-325.39148438 196.40463379 -324.53296875 195.87176758 -323.6484375 195.32275391 C-314.67907595 189.76837703 -305.62587805 184.35526127 -296.57373047 178.9375 C-287.99004117 173.79930386 -279.4234863 168.63405487 -270.875 163.4375 C-270.30167938 163.08901001 -269.72835876 162.74052002 -269.13766479 162.38146973 C-266.24740913 160.6244217 -263.35750773 158.86679206 -260.46777344 157.10888672 C-256.98220137 154.9887775 -253.4952146 152.87100357 -250.0078125 150.75390625 C-249.43000031 150.40312515 -248.85218811 150.05234406 -248.25686646 149.69093323 C-245.33495566 147.91718324 -242.41288682 146.14369387 -239.49072266 144.37036133 C-234.27574773 141.20528366 -229.06161601 138.03887425 -223.85269165 134.86384583 C-210.22948532 126.56027318 -196.55746069 118.34741355 -182.82531738 110.22515869 C-172.77855857 104.27976091 -162.81162824 98.22199086 -152.88867188 92.0715332 C-143.42190633 86.22058677 -133.85471842 80.54640456 -124.27471924 74.88348389 C-116.31996884 70.17995813 -108.39577895 65.4443415 -100.59155273 60.49365234 C-94.35783408 56.55521912 -87.99475285 52.84023892 -81.63793945 49.10498047 C-74.74227481 45.04660998 -67.89195849 40.91874021 -61.0625 36.75 C-60.09054687 36.15678955 -59.11859375 35.5635791 -58.1171875 34.95239258 C-56.25030984 33.81285122 -54.38344718 32.67328527 -52.51660156 31.53369141 C-36.11990981 21.54106261 -19.5855316 11.75970723 -2.94921875 2.171875 C-1.06603093 1.14659035 -1.06603093 1.14659035 0 0 Z " fill="#D5D5D6" transform="translate(501,293)"/>
<path d="M0 0 C0.40112811 3.08906131 0.5448196 5.92213161 0 9 C-2.3491832 11.14860171 -3.90005811 12.16012481 -6.6875 13.5 C-8.24361883 14.33065749 -9.79818609 15.16422526 -11.3515625 16 C-12.23489258 16.46277344 -13.11822266 16.92554688 -14.02832031 17.40234375 C-19.31955014 20.24705358 -24.47797348 23.3231686 -29.65188599 26.37432861 C-31.57055457 27.50474549 -33.4918389 28.63059415 -35.41381836 29.75537109 C-42.36274578 33.82626787 -49.25963527 37.96275541 -56.06274414 42.27368164 C-68.80676155 50.33178326 -81.8333214 57.94668071 -94.80859375 65.625 C-110.63062146 74.98979867 -126.36172982 84.47392299 -141.99755859 94.14746094 C-149.61554319 98.84784044 -157.27219195 103.48522884 -164.92333984 108.13134766 C-167.67155045 109.8005116 -170.41907822 111.47079378 -173.16633606 113.14152527 C-188.36514895 122.38410788 -203.58810876 131.58466344 -218.85888672 140.70800781 C-230.47363164 147.64786027 -242.05619509 154.63155775 -253.5625 161.75 C-263.94311131 168.16817918 -274.40846433 174.42995364 -284.91275024 180.64273071 C-294.56089515 186.34987014 -304.17542849 192.10773661 -313.75 197.9375 C-314.32547577 198.28789337 -314.90095154 198.63828674 -315.49386597 198.9992981 C-316.34562912 199.51796951 -316.34562912 199.51796951 -317.21459961 200.04711914 C-326.51213328 205.70868554 -335.81691291 211.36036335 -345.18701172 216.90136719 C-346.7096836 217.82407436 -348.19081033 218.814857 -349.66015625 219.8203125 C-352.77562173 221.39104802 -354.5476674 221.56078499 -358 221 C-360.31873297 219.39925034 -362.20991128 217.89666919 -364.25 216 C-365.39219651 214.98451438 -366.53543612 213.97020087 -367.6796875 212.95703125 C-368.24010742 212.45381348 -368.80052734 211.9505957 -369.37792969 211.43212891 C-371.64389357 209.43150517 -374.00056446 207.55727722 -376.375 205.6875 C-379.78340354 202.99171244 -383.09743341 200.22621013 -386.33203125 197.32421875 C-388.05182355 195.89305526 -388.05182355 195.89305526 -390.37890625 194.62109375 C-393.3104353 192.80800201 -395.61473365 190.73539971 -398.125 188.375 C-403.57576743 183.3451973 -409.22382206 178.64876172 -415 174 C-417.66856859 171.83567285 -420.3340571 169.66756003 -423 167.5 C-424.38669725 166.37367145 -425.77341562 165.24736889 -427.16015625 164.12109375 C-433.45997194 159.00220519 -439.74808828 153.86955743 -445.99609375 148.6875 C-453.56213959 142.41988085 -461.17752834 136.26204665 -468.99609375 130.3125 C-472.93957667 127.2766848 -476.79458446 124.1449424 -480.609375 120.94921875 C-482.88715319 119.03105802 -482.88715319 119.03105802 -485.015625 117.64453125 C-486.6875 116.5 -486.6875 116.5 -489 114 C-489.47376258 110.93355867 -489.36159753 108.07357903 -489 105 C-483.18830768 109.18441847 -477.7676224 113.71951448 -472.35375977 118.39672852 C-466.98314342 123.03235055 -461.51036425 127.53147715 -456 132 C-454.16596746 133.499145 -452.33264019 134.99915322 -450.5 136.5 C-449.58605469 137.24765625 -448.67210937 137.9953125 -447.73046875 138.765625 C-445.96177205 140.21297051 -444.19351457 141.66085301 -442.42578125 143.109375 C-436.960935 147.58581109 -431.48387581 152.04691826 -426 156.5 C-423.95219906 158.16359903 -421.90451034 159.82733597 -419.85693359 161.49121094 C-418.23433632 162.80959789 -416.61134223 164.12749645 -414.98828125 165.4453125 C-410.09294393 169.43304714 -405.24805071 173.47335748 -400.4375 177.5625 C-395.97099672 181.35841167 -391.45277564 185.06968404 -386.85546875 188.70703125 C-383.80925461 191.15317037 -380.80461067 193.64512891 -377.80126953 196.14355469 C-374.8797924 198.56611871 -371.94063817 200.96654443 -368.99755859 203.36279297 C-367.21919016 204.82035087 -365.46251455 206.30025291 -363.70703125 207.78515625 C-362.77246094 208.53667969 -361.83789062 209.28820312 -360.875 210.0625 C-360.08867187 210.71347656 -359.30234375 211.36445313 -358.4921875 212.03515625 C-355.94028754 213.30926381 -355.94028754 213.30926381 -352.97265625 212.15234375 C-347.93237811 209.60448856 -343.1383341 206.56200098 -338.3371582 203.59594727 C-335.23241993 201.67860374 -332.11779655 199.77743104 -329.00390625 197.875 C-328.35136871 197.47591431 -327.69883118 197.07682861 -327.02651978 196.66564941 C-320.39111224 192.61427482 -313.70611603 188.64815984 -307.01419067 184.69107056 C-296.18407234 178.28679353 -285.37784516 171.84579795 -274.625 165.3125 C-274.05103485 164.96380859 -273.4770697 164.61511719 -272.88571167 164.25585938 C-266.74149163 160.520579 -260.61036375 156.76461381 -254.49609375 152.98046875 C-242.41379263 145.50360701 -230.26285299 138.17812968 -217.98721313 131.02496338 C-210.56996054 126.70174253 -203.19716823 122.3322542 -195.94824219 117.73144531 C-190.06851923 114.00959001 -184.09892823 110.44318773 -178.125 106.875 C-169.44143855 101.68494604 -160.79615562 96.43837944 -152.1875 91.125 C-132.54830645 79.0102381 -112.82395463 67.05198455 -92.96768188 55.29684448 C-83.46499342 49.67012662 -73.99545345 43.99285983 -64.5625 38.25 C-29.45780237 16.88310504 -29.45780237 16.88310504 -13.00952148 7.49853516 C-9.78586442 5.65256887 -6.61961078 3.78286566 -3.54296875 1.69921875 C-1 0 -1 0 0 0 Z " fill="#FEFEFE" transform="translate(502,231)"/>
<path d="M0 0 C2.9375 1.125 2.9375 1.125 3.9375 2.125 C4.3046875 4.453125 4.3046875 4.453125 3.9375 7.125 C1.8203125 9.109375 1.8203125 9.109375 -0.9375 10.875 C-1.84242188 11.46796875 -2.74734375 12.0609375 -3.6796875 12.671875 C-6.0625 14.125 -6.0625 14.125 -8.0625 15.125 C-4.85133205 14.60706969 -2.01850781 13.72599756 1 12.5625 C6.50206524 10.68847442 12.18545244 10.27592786 17.9375 11.125 C20.29296875 12.3984375 20.29296875 12.3984375 21.9375 14.125 C21.9375 15.445 21.9375 16.765 21.9375 18.125 C23.360625 16.9803125 23.360625 16.9803125 24.8125 15.8125 C25.34617187 15.38324219 25.87984375 14.95398438 26.4296875 14.51171875 C28.19042107 13.00229455 28.19042107 13.00229455 29.9375 10.125 C35.6875 10.875 35.6875 10.875 37.9375 13.125 C37.78836521 16.20711897 37.4161218 17.66126866 35.1796875 19.828125 C34.39851563 20.33859375 33.61734375 20.8490625 32.8125 21.375 C31.92433594 21.96152344 31.03617187 22.54804688 30.12109375 23.15234375 C25.73764762 25.86846681 21.3194008 28.52670118 16.85302734 31.10449219 C13.3014727 33.00852923 13.3014727 33.00852923 10.9375 36.125 C15.53872092 35.34790491 19.15264466 34.65870163 23.0625 32 C26.64743005 29.66200214 28.73373811 29.56978617 32.9375 30.125 C35.55343153 31.95615207 35.90739455 33.03468366 36.9375 36.125 C38.5875 36.455 40.2375 36.785 41.9375 37.125 C42.4325 39.105 42.4325 39.105 42.9375 41.125 C26.78856383 52.08244681 26.78856383 52.08244681 18.9375 56.125 C29.56220971 55.03238801 38.93450369 52.00793799 46.9375 44.6875 C49.9375 42.125 49.9375 42.125 52.0625 42.27734375 C52.990625 42.69693359 52.990625 42.69693359 53.9375 43.125 C54.2675 44.115 54.5975 45.105 54.9375 46.125 C50.28449696 55.17027747 39.04361361 59.45633674 30.23828125 63.3046875 C25.10180051 64.58120934 19.96166878 64.68082039 14.6875 64.875 C13.58664063 64.93042969 12.48578125 64.98585938 11.3515625 65.04296875 C10.30226562 65.08550781 9.25296875 65.12804687 8.171875 65.171875 C6.73666504 65.23133301 6.73666504 65.23133301 5.27246094 65.29199219 C2.9375 65.125 2.9375 65.125 0.9375 63.125 C0.8125 60 0.8125 60 0.9375 57.125 C-0.01125 57.145625 -0.96 57.16625 -1.9375 57.1875 C-5.0625 57.125 -5.0625 57.125 -7.0625 56.125 C-7.3984375 53.3671875 -7.3984375 53.3671875 -7.0625 50.125 C-4.7265625 48.0078125 -4.7265625 48.0078125 -1.6875 46.25 C-0.68976563 45.65445313 0.30796875 45.05890625 1.3359375 44.4453125 C3.9375 43.125 3.9375 43.125 5.9375 43.125 C5.9375 42.465 5.9375 41.805 5.9375 41.125 C0.66073796 40.66477113 -2.0827688 41.91830557 -6.5 44.75 C-7.0669458 45.11246826 -7.6338916 45.47493652 -8.21801758 45.84838867 C-13.54534287 49.31469963 -18.50163121 52.78369681 -22.0625 58.125 C-25.0625 58.4375 -25.0625 58.4375 -28.0625 58.125 C-30.0625 56.125 -30.0625 56.125 -30.3125 53.125 C-30.0625 50.125 -30.0625 50.125 -28.0625 48.125 C-28.7225 47.795 -29.3825 47.465 -30.0625 47.125 C-29.49940698 42.86709115 -28.01615269 40.16450253 -25.625 36.625 C-21.37101117 30.38496756 -21.37101117 30.38496756 -20.0625 23.125 C-20.59359375 23.4859375 -21.1246875 23.846875 -21.671875 24.21875 C-22.37828125 24.6828125 -23.0846875 25.146875 -23.8125 25.625 C-24.50859375 26.0890625 -25.2046875 26.553125 -25.921875 27.03125 C-28.0625 28.125 -28.0625 28.125 -32.0625 28.125 C-32.3925 29.775 -32.7225 31.425 -33.0625 33.125 C-36.77849191 33.32586443 -37.83458445 33.2769437 -41.0625 31.125 C-41.5625 28.75 -41.5625 28.75 -41.0625 26.125 C-37.18560006 22.12303877 -31.94614029 19.72109636 -27.0625 17.125 C-28.361875 16.980625 -29.66125 16.83625 -31 16.6875 C-34.9375 16.25 -34.9375 16.25 -36.0625 15.125 C-36.10330783 13.12541636 -36.10504356 11.12454746 -36.0625 9.125 C-28.93299629 7.22379901 -22.42509293 6.90075859 -15.0625 7.125 C-14.7325 7.785 -14.4025 8.445 -14.0625 9.125 C-13.10150391 8.13306641 -13.10150391 8.13306641 -12.12109375 7.12109375 C-4.17551179 -0.63502575 -4.17551179 -0.63502575 0 0 Z M2.38671875 19.5703125 C-0.0625 20.125 -0.0625 20.125 -2.48046875 20.1796875 C-5.27428291 20.33879919 -6.71115111 20.56644307 -9.0625 22.125 C-11.06587958 25.808069 -12.46697564 29.4548248 -13.7734375 33.42578125 C-14.90767466 36.68069819 -16.17058608 39.26500147 -18.0625 42.125 C-14.36862992 40.74125924 -11.04615268 39.06478201 -7.640625 37.078125 C-6.10148437 36.1809375 -6.10148437 36.1809375 -4.53125 35.265625 C-3.4690625 34.64171875 -2.406875 34.0178125 -1.3125 33.375 C-0.26578125 32.7665625 0.7809375 32.158125 1.859375 31.53125 C11.12003888 26.17110953 11.12003888 26.17110953 19.9375 20.125 C19.9375 19.795 19.9375 19.465 19.9375 19.125 C13.75229352 18.15115898 8.47844377 18.02108259 2.38671875 19.5703125 Z M2.6171875 53.21484375 C0.71738303 54.95138094 0.71738303 54.95138094 0.9375 57.125 C4.41163995 55.81882812 7.52136629 54.29524069 10.6953125 52.375 C11.56800781 51.8490625 12.44070312 51.323125 13.33984375 50.78125 C14.68755859 49.96140625 14.68755859 49.96140625 16.0625 49.125 C16.96871094 48.5784375 17.87492187 48.031875 18.80859375 47.46875 C22.22419695 45.40420762 25.61627181 43.33915213 28.9375 41.125 C28.9375 40.465 28.9375 39.805 28.9375 39.125 C20.13355885 39.125 8.95317885 47.50818487 2.6171875 53.21484375 Z " fill="#D1D1D1" transform="translate(148.0625,331.875)"/>
<path d="M0 0 C3.82217732 -0.66472649 5.9156802 -0.66626879 9.26953125 1.39453125 C14.59411175 5.61806764 19.54833523 10.28613259 24.52026367 14.91552734 C28.46693994 18.57460448 32.58152423 21.9570762 36.84375 25.24609375 C39.08620739 27.07012159 41.12806019 28.7919619 43 31 C43 32.32 43 33.64 43 35 C43.99 34.979375 44.98 34.95875 46 34.9375 C50.8759663 35.62982787 53.21498349 38.86904285 56.19921875 42.53125 C60.75655198 48.7790474 62.55546513 53.22348821 62 61 C59.7578125 61.328125 59.7578125 61.328125 57 61 C54.8671875 58.734375 54.8671875 58.734375 52.875 55.75 C52.21242188 54.77546875 51.54984375 53.8009375 50.8671875 52.796875 C50.25101562 51.87390625 49.63484375 50.9509375 49 50 C48.00997249 48.65924525 47.01405257 47.32267727 46 46 C41.40798717 46.60582961 37.70182217 48.49988596 33.6875 50.6875 C33.02395508 51.04618164 32.36041016 51.40486328 31.67675781 51.77441406 C23.16735057 56.35499892 23.16735057 56.35499892 16.484375 63.14453125 C15 65 15 65 12 65.4375 C9 65 9 65 7.0625 63.8125 C6 62 6 62 6.1953125 59.56640625 C7.1764503 56.43724345 8.04809385 55.80854825 10.8125 54.125 C11.61171875 53.63 12.4109375 53.135 13.234375 52.625 C14.14703125 52.08875 15.0596875 51.5525 16 51 C17.07765625 50.360625 18.1553125 49.72125 19.265625 49.0625 C22.167295 47.35725317 25.0784388 45.67087595 28 44 C26.989375 43.62875 25.97875 43.2575 24.9375 42.875 C21.8639555 41.59848757 19.83218549 40.04847045 17.4375 37.75 C14.63196552 35.20193597 14.63196552 35.20193597 10.75 34.9375 C8.01474146 35.99430444 6.94153994 36.90427895 5 39 C5.69867188 39.18175781 6.39734375 39.36351562 7.1171875 39.55078125 C8.48230469 39.92783203 8.48230469 39.92783203 9.875 40.3125 C10.77992188 40.55613281 11.68484375 40.79976563 12.6171875 41.05078125 C15 42 15 42 17 45 C16.625 47.6875 16.625 47.6875 16 50 C9.51527007 49.26309887 3.30760257 47.64681249 -3 46 C-2.938125 47.11375 -2.87625 48.2275 -2.8125 49.375 C-2.8266811 57.38732067 -5.78952855 64.32132115 -10 71 C-11.98 71 -13.96 71 -16 71 C-15.88366642 69.47847921 -15.7564113 67.95779277 -15.625 66.4375 C-15.55539063 65.59058594 -15.48578125 64.74367188 -15.4140625 63.87109375 C-15 61 -15 61 -14 57.71875 C-12.85026037 53.44315575 -12.5561163 49.46589012 -12.375 45.0625 C-12.33632812 44.28326172 -12.29765625 43.50402344 -12.2578125 42.70117188 C-12.16455873 40.80112621 -12.08124038 38.90059722 -12 37 C-12.74765625 37.5053125 -13.4953125 38.010625 -14.265625 38.53125 C-15.74289063 39.50578125 -15.74289063 39.50578125 -17.25 40.5 C-18.71179688 41.47453125 -18.71179688 41.47453125 -20.203125 42.46875 C-23 44 -23 44 -27 44 C-27 45.65 -27 47.3 -27 49 C-32.43806647 49.36253776 -32.43806647 49.36253776 -34.9375 47.75 C-36 46 -36 46 -36.0625 44.125 C-33.80824765 39.6164953 -29.42831377 37.0940833 -25 35 C-25.68707031 35.09539062 -26.37414062 35.19078125 -27.08203125 35.2890625 C-27.98308594 35.39992188 -28.88414062 35.51078125 -29.8125 35.625 C-30.70582031 35.74101562 -31.59914062 35.85703125 -32.51953125 35.9765625 C-35 36 -35 36 -38 34 C-38.1875 31.375 -38.1875 31.375 -38 29 C-32.64382314 26.70449563 -28.01075464 25.86734031 -22.1875 25.9375 C-20.72376953 25.95103516 -20.72376953 25.95103516 -19.23046875 25.96484375 C-18.12638672 25.98224609 -18.12638672 25.98224609 -17 26 C-17 27.32 -17 28.64 -17 30 C-16.484375 29.67 -15.96875 29.34 -15.4375 29 C-12.21973488 27.67989123 -9.4429472 27.86757895 -6 28 C-3 34.5 -3 34.5 -3 39 C-2.34 38.67 -1.68 38.34 -1 38 C-1.33 36.35 -1.66 34.7 -2 33 C-0.02 31.35 1.96 29.7 4 28 C1.74123872 24.56668286 0.40552855 23.15207321 -3.5 21.6875 C-7.05968534 20.87150313 -7.05968534 20.87150313 -11 21 C-11.31772575 12.73913043 -11.31772575 12.73913043 -9 10 C-5.875 9.25 -5.875 9.25 -3 9 C-2.01 6.03 -1.02 3.06 0 0 Z M5 10 C3.02 10.99 3.02 10.99 1 12 C1.99 13.485 1.99 13.485 3 15 C3.66 15 4.32 15 5 15 C5.33 15.99 5.66 16.98 6 18 C8.13918622 20.01036785 8.13918622 20.01036785 10.8125 22.0625 C11.79476562 22.85398437 12.77703125 23.64546875 13.7890625 24.4609375 C15.97361303 26.19966139 18.18097357 27.90510729 20.3984375 29.6015625 C21.49496795 30.4633174 22.5913265 31.32529109 23.6875 32.1875 C24.70199219 32.96480469 25.71648437 33.74210937 26.76171875 34.54296875 C29 37 29 37 29.33203125 40.30078125 C29.16767578 41.63689453 29.16767578 41.63689453 29 43 C32.93673644 41.68775452 35.22719294 40.08089673 38 37 C37.55011719 36.68289063 37.10023438 36.36578125 36.63671875 36.0390625 C30.34083754 31.4717098 24.71453193 26.26404328 19 21 C14.52689726 16.94264175 10.12685179 13.20428237 5 10 Z " fill="#D1D1D1" transform="translate(211,280)"/>
<path d="M0 0 C0.33 0 0.66 0 1 0 C1.625 3.0625 1.625 3.0625 1 7 C-4.45560875 12.72304055 -12.75525703 16.13931756 -19.65258789 19.90136719 C-25.49525571 23.10474255 -31.16954193 26.52068964 -36.8125 30.0625 C-45.14014543 35.2824663 -53.57079425 40.30380243 -62.0625 45.25 C-81.08132682 56.33701845 -99.8693633 67.78969922 -118.56811523 79.40820312 C-125.01389312 83.40709408 -131.50445171 87.32615181 -138.01660156 91.21582031 C-144.52836872 95.1078245 -151.01193351 99.044763 -157.49084473 102.99118042 C-168.38944953 109.62839369 -179.3321598 116.18641009 -190.3125 122.6875 C-202.35884116 129.82058133 -214.35100785 137.03522981 -226.29199219 144.34375 C-233.82861828 148.95324075 -241.38013775 153.5383869 -248.92773438 158.12988281 C-252.13516003 160.08227319 -255.34101207 162.03723233 -258.546875 163.9921875 C-272.90128554 172.73616796 -287.31298276 181.37752482 -301.78100586 189.93237305 C-302.44155975 190.32326111 -303.10211365 190.71414917 -303.78268433 191.11688232 C-305.02003513 191.84890654 -306.25782195 192.58019444 -307.49612427 193.31060791 C-310.04374757 194.81766579 -312.53602421 196.35734947 -315 198 C-315.99 198 -316.98 198 -318 198 C-318.578125 195.36328125 -318.578125 195.36328125 -318 192 C-315.24079543 189.53427446 -311.99894979 187.92771073 -308.75 186.1875 C-306.72517023 185.04934837 -304.70180202 183.90859376 -302.6796875 182.765625 C-301.59655273 182.16041016 -300.51341797 181.55519531 -299.39746094 180.93164062 C-294.08605222 177.91181698 -288.87944873 174.72530006 -283.66906738 171.53530884 C-280.67615249 169.70391251 -277.67774059 167.88156204 -274.6796875 166.05859375 C-274.1012207 165.70661423 -273.52275391 165.3546347 -272.92675781 164.99198914 C-267.96370126 161.97360881 -262.98502944 158.98190313 -258 156 C-250.14845332 151.30075923 -242.32049103 146.56318833 -234.5 141.8125 C-233.90699097 141.45234802 -233.31398193 141.09219604 -232.70300293 140.72113037 C-226.73841037 137.09846002 -220.77529886 133.47338183 -214.81648254 129.84121704 C-201.13924857 121.50531354 -187.41437259 113.25682426 -173.63223267 105.09542847 C-162.28204119 98.37287729 -150.99010448 91.56082411 -139.73876953 84.67382812 C-136.90040328 82.93913041 -134.05821282 81.21085918 -131.21484375 79.484375 C-122.91900592 74.44625394 -114.62928635 69.40203008 -106.39672852 64.26098633 C-96.72653578 58.22706318 -86.93961983 52.41393156 -77.09289551 46.67489624 C-67.71429077 41.20682865 -58.39646621 35.64782115 -49.125 30 C-48.53195068 29.63884094 -47.93890137 29.27768188 -47.32788086 28.90557861 C-44.52054612 27.19554222 -41.7139533 25.4842961 -38.90771484 23.77246094 C-31.30031655 19.13520556 -23.67604291 14.53267478 -15.953125 10.08984375 C-15.08051025 9.58759277 -14.20789551 9.0853418 -13.30883789 8.56787109 C-11.59636636 7.58444002 -9.88208299 6.60415542 -8.16577148 5.62744141 C-7.00670288 4.96301025 -7.00670288 4.96301025 -5.82421875 4.28515625 C-5.13416748 3.89207275 -4.44411621 3.49898926 -3.7331543 3.09399414 C-1.84290889 1.98991837 -1.84290889 1.98991837 0 0 Z " fill="#FEFEFE" transform="translate(481,267)"/>
<path d="M0 0 C3.81257933 0.32270925 5.0480733 1.18295856 7.91796875 3.6484375 C8.77777344 4.37804687 9.63757813 5.10765625 10.5234375 5.859375 C14.21837452 9.15442707 17.87645178 12.48759836 21.51953125 15.83984375 C24.76455813 18.75288661 28.14137264 21.45190311 31.56640625 24.1484375 C39.61576287 30.56903867 47.37646548 37.33540512 54.99609375 44.2578125 C58.02470552 46.98991683 61.11944172 49.63582763 64.23046875 52.2734375 C63.90046875 53.9234375 63.57046875 55.5734375 63.23046875 57.2734375 C59.21133691 57.87630728 56.83450152 57.33374965 53.60546875 55.0234375 C49.86739015 52.02294913 46.57503233 48.63227354 43.23046875 45.2109375 C38.88057739 40.77749888 34.93620338 36.92955535 29.23046875 34.2734375 C24.80981935 34.2734375 22.57998154 35.52205199 19.23046875 38.2734375 C18.57046875 38.2734375 17.91046875 38.2734375 17.23046875 38.2734375 C16.90046875 39.2634375 16.57046875 40.2534375 16.23046875 41.2734375 C14.25046875 41.2734375 12.27046875 41.2734375 10.23046875 41.2734375 C10.38902344 41.76972656 10.54757812 42.26601563 10.7109375 42.77734375 C13.06560714 54.09038059 11.88514743 67.69693607 5.79296875 77.61328125 C4.23046875 79.2734375 4.23046875 79.2734375 1.04296875 79.5234375 C0.11484375 79.4409375 -0.81328125 79.3584375 -1.76953125 79.2734375 C-1.26826609 74.26078591 -0.6191015 69.35337231 0.29296875 64.3984375 C1.29112519 58.64609891 1.43684084 53.09771662 1.23046875 47.2734375 C-6.90071956 50.69916514 -6.90071956 50.69916514 -13.64453125 56.1484375 C-15.76953125 58.2734375 -15.76953125 58.2734375 -18.95703125 58.7734375 C-19.88515625 58.6084375 -20.81328125 58.4434375 -21.76953125 58.2734375 C-23.76953125 55.2734375 -23.76953125 55.2734375 -23.61279297 53.25634766 C-22.56530575 50.79320602 -21.49871813 50.01578582 -19.27734375 48.546875 C-18.57222656 48.0725 -17.86710937 47.598125 -17.140625 47.109375 C-16.39941406 46.62726563 -15.65820312 46.14515625 -14.89453125 45.6484375 C-14.16105469 45.15859375 -13.42757813 44.66875 -12.671875 44.1640625 C-10.71100703 42.85681719 -8.74162599 41.56364814 -6.76953125 40.2734375 C-5.77953125 39.6134375 -4.78953125 38.9534375 -3.76953125 38.2734375 C-4.42953125 36.2934375 -5.08953125 34.3134375 -5.76953125 32.2734375 C-11.06317675 33.7041525 -15.54203791 36.25262868 -20.28125 38.93359375 C-22.76953125 40.2734375 -22.76953125 40.2734375 -25.76953125 41.2734375 C-26.98823054 43.77791266 -26.98823054 43.77791266 -27.76953125 46.2734375 C-30.57315888 46.50075866 -32.23139642 46.61425622 -34.64453125 45.0859375 C-35.76953125 43.2734375 -35.76953125 43.2734375 -35.58984375 40.859375 C-34.01086307 35.88182638 -29.0182592 33.91127333 -24.76953125 31.2734375 C-24.09599609 30.84740234 -23.42246094 30.42136719 -22.72851562 29.98242188 C-20.50323703 28.58146732 -18.26438024 27.20528569 -16.01953125 25.8359375 C-15.29894531 25.38645752 -14.57835937 24.93697754 -13.8359375 24.47387695 C-9.74390327 22.03595869 -6.66965806 20.33706269 -1.76953125 21.2734375 C0.27734375 22.8828125 0.27734375 22.8828125 1.98046875 25.0234375 C2.5528125 25.71953125 3.12515625 26.415625 3.71484375 27.1328125 C5.12234212 29.12072257 6.21533448 31.06402761 7.23046875 33.2734375 C11.72843988 31.58669832 15.95933177 29.45669858 20.23046875 27.2734375 C11.67247031 17.36451712 11.67247031 17.36451712 0.4375 11.83984375 C-2.00801397 11.83639451 -4.34652005 11.95475335 -6.76953125 12.2734375 C-6.29447447 10.45985596 -5.81437083 8.64759571 -5.33203125 6.8359375 C-5.06519531 5.82660156 -4.79835938 4.81726563 -4.5234375 3.77734375 C-3.48985219 0.34455522 -3.48985219 0.34455522 0 0 Z " fill="#D0D0D0" transform="translate(283.76953125,236.7265625)"/>
<path d="M0 0 C-1.33257127 3.99771381 -3.86192274 5.24311333 -7.25 7.4375 C-8.24495483 8.09165894 -8.24495483 8.09165894 -9.26000977 8.7590332 C-15.56535756 12.84023681 -22.08405291 16.52078812 -28.62866211 20.20068359 C-35.3083014 23.9771874 -41.82794204 27.96123469 -48.3125 32.0625 C-57.76461342 38.03295042 -67.31508362 43.8095013 -76.9375 49.5 C-77.61730927 49.902117 -78.29711853 50.30423401 -78.99752808 50.71853638 C-81.71426535 52.32521069 -84.43121813 53.93151928 -87.14860535 55.53709412 C-93.57195686 59.3338669 -99.97688331 63.16083203 -106.375 67 C-107.38336914 67.60416748 -108.39173828 68.20833496 -109.43066406 68.83081055 C-114.08354105 71.62415072 -118.72189076 74.437388 -123.33203125 77.30078125 C-124.15719238 77.81189453 -124.98235352 78.32300781 -125.83251953 78.84960938 C-127.34094961 79.78663125 -128.84615844 80.72887101 -130.34716797 81.67773438 C-134.14091846 84.03533862 -137.65872659 85.77796192 -142 87 C-142.5625 84.375 -142.5625 84.375 -142 81 C-140.28613281 79.54467773 -140.28613281 79.54467773 -138.015625 78.12109375 C-136.78307983 77.34040527 -136.78307983 77.34040527 -135.52563477 76.54394531 C-134.69217529 76.03444336 -133.85871582 75.52494141 -133 75 C-131.92866821 74.34016113 -131.92866821 74.34016113 -130.83569336 73.66699219 C-128.62866278 72.32480636 -126.4098158 71.00421282 -124.1875 69.6875 C-122.42015391 68.63351478 -120.65325249 67.57878369 -118.88671875 66.5234375 C-117.94103027 65.95850586 -116.9953418 65.39357422 -116.02099609 64.81152344 C-110.50033131 61.50108763 -105.0006567 58.15602898 -99.5 54.8125 C-98.30363413 54.08552307 -97.10726366 53.35855372 -95.91088867 52.6315918 C-93.48343882 51.15645124 -91.05613727 49.68106699 -88.62890625 48.20556641 C-83.33363048 44.98685198 -78.03635824 41.77142638 -72.73919678 38.55581665 C-71.00071832 37.50043607 -69.26230949 36.44494092 -67.52392578 35.3894043 C-62.18092424 32.14518155 -56.83773025 28.90127736 -51.49369812 25.65875244 C-49.6578912 24.54479893 -47.82223105 23.43060384 -45.98657227 22.31640625 C-43.60756334 20.87252107 -41.22777847 19.42992735 -38.84741211 17.98828125 C-33.68683725 14.86087036 -28.53544715 11.72104957 -23.41796875 8.5234375 C-22.58668457 8.0063623 -21.75540039 7.48928711 -20.89892578 6.95654297 C-19.3997474 6.02194545 -17.90426931 5.08137066 -16.41357422 4.13330078 C-10.71880919 0.59011076 -6.61172044 -0.15376094 0 0 Z " fill="#FFFFFF" transform="translate(155,10)"/>
<path d="M0 0 C6.36694292 3.84037827 11.90827636 8.39033847 17.49047852 13.26049805 C21.58838231 16.8236787 25.76988343 20.23703965 30.0625 23.5625 C35.25523426 27.59107076 40.31314042 31.74551269 45.31225586 36.01147461 C50.47802143 40.41954194 55.73144321 44.71542367 61 49 C71.10883836 57.25243131 81.177366 65.55363306 91.24804688 73.85253906 C99.82024874 80.91618313 108.39576418 87.97537551 117 95 C113.19703138 95 112.38604975 93.96597974 109.5 91.5625 C108.60410156 90.82386719 107.70820312 90.08523438 106.78515625 89.32421875 C105.86605469 88.55722656 104.94695312 87.79023438 104 87 C102.31340708 85.62388752 100.62588792 84.24890956 98.9375 82.875 C90.52986644 75.98097698 82.14271211 69.06200038 73.75195312 62.14746094 C66.15658693 55.88874652 58.55878647 49.6333987 50.9375 43.40625 C47.11888819 40.27823819 43.30952764 37.13906406 39.5 34 C29.17994812 25.49941177 18.83227968 17.0403867 8.3828125 8.69921875 C7.80821289 8.23821777 7.23361328 7.7772168 6.64160156 7.30224609 C5.12967514 6.10286841 3.59318624 4.93462778 2.0546875 3.76953125 C1.37664063 3.18558594 0.69859375 2.60164063 0 2 C0 1.34 0 0.68 0 0 Z " fill="#010101" transform="translate(13,409)"/>
</svg>
