<?xml version="1.0" encoding="UTF-8"?>
<svg version="1.1" xmlns="http://www.w3.org/2000/svg" width="512" height="512">
<path d="M0 0 C0.54844631 3.14573135 0.71051543 5.8705025 0 9 C-2.48618093 11.68085359 -5.52243279 13.15362539 -8.75 14.8125 C-10.59945578 15.83894796 -12.44840046 16.86631728 -14.296875 17.89453125 C-15.24755859 18.40838379 -16.19824219 18.92223633 -17.17773438 19.45166016 C-21.53009831 21.83943629 -25.75904593 24.4212236 -30 27 C-31.67642163 28.00761215 -33.35350671 29.0141213 -35.03125 30.01953125 C-35.85753906 30.51533691 -36.68382812 31.01114258 -37.53515625 31.52197266 C-39.92890402 32.95736776 -42.32366632 34.39105408 -44.71875 35.82421875 C-55.000965 41.98001156 -65.25315345 48.18417208 -75.49291992 54.4102478 C-84.82250093 60.08203021 -94.17548159 65.71340707 -103.54321289 71.32202148 C-112.20094868 76.51006187 -120.83021608 81.74409053 -129.45458984 86.98730469 C-136.92534901 91.52910639 -144.4062519 96.05219186 -151.91015625 100.5390625 C-155.28083944 102.56129763 -158.63899842 104.60373163 -161.99609375 106.6484375 C-164.30981069 108.05743179 -166.62356907 109.46635724 -168.9375 110.875 C-169.82266296 111.41388351 -169.82266296 111.41388351 -170.72570801 111.96365356 C-180.69157428 118.02691247 -190.71025597 123.99752996 -200.75 129.9375 C-209.41143498 135.06232936 -218.05604056 140.20051974 -226.56054688 145.58349609 C-232.23296147 149.16991594 -237.98740272 152.61316747 -243.74829102 156.05517578 C-251.08215557 160.44020272 -258.38705086 164.87216793 -265.6875 169.3125 C-274.60799199 174.73700525 -283.54245797 180.13678536 -292.5 185.5 C-300.7953728 190.46782795 -309.07562868 195.45958834 -317.33981323 200.47906494 C-319.10852289 201.55249999 -320.87847496 202.6238601 -322.64868164 203.69482422 C-328.36545325 207.15736346 -334.05619185 210.65331066 -339.70703125 214.22265625 C-340.75938965 214.88128662 -341.81174805 215.53991699 -342.89599609 216.21850586 C-344.87407596 217.45841802 -346.84493053 218.70995841 -348.80712891 219.97485352 C-349.6841748 220.52197998 -350.5612207 221.06910645 -351.46484375 221.6328125 C-352.224021 222.11637207 -352.98319824 222.59993164 -353.76538086 223.09814453 C-356.62409368 224.25187393 -358.09808405 223.94580087 -361 223 C-363.10344675 221.43181824 -365.00084597 219.87587815 -366.9375 218.125 C-368.09179397 217.11364856 -369.24811052 216.10460175 -370.40625 215.09765625 C-371.29570312 214.32252686 -371.29570312 214.32252686 -372.203125 213.53173828 C-375.04070031 211.11285954 -377.98624274 208.84009621 -380.9375 206.5625 C-386.35464964 202.36077022 -391.57388178 197.97484773 -396.74975586 193.48071289 C-400.74348004 190.0307012 -404.82802135 186.73147816 -409 183.5 C-414.48764822 179.24884234 -419.78223967 174.8157984 -425.02905273 170.27172852 C-429.09270598 166.75775923 -433.24022908 163.3762914 -437.45703125 160.046875 C-440.43599755 157.64905881 -443.34322575 155.17165967 -446.25 152.6875 C-451.3162144 148.36374161 -456.49845969 144.2203938 -461.75756836 140.13452148 C-466.42190172 136.49458869 -470.9622656 132.7264614 -475.4284668 128.84594727 C-478.5895307 126.11506699 -481.84198723 123.75298274 -485.3125 121.4375 C-487.9766921 119.44421759 -488.86718878 118.64318579 -489.546875 115.3515625 C-489.56099421 112.83128355 -489.40497626 110.48485434 -489 108 C-483.42559084 112.04417919 -478.16049042 116.35858317 -472.92553711 120.82495117 C-468.82391859 124.31905409 -464.65440375 127.71286518 -460.43359375 131.0625 C-454.59328349 135.71224942 -448.84546434 140.47738157 -443.0859375 145.2265625 C-441.66146337 146.40104778 -440.23698406 147.57552677 -438.8125 148.75 C-438.08893311 149.34675537 -437.36536621 149.94351074 -436.61987305 150.55834961 C-431.68285003 154.62589802 -426.72245315 158.66338579 -421.75 162.6875 C-416.27422455 167.12046184 -410.86812477 171.62529043 -405.50415039 176.19262695 C-401.65333644 179.46519028 -397.73896058 182.64340223 -393.78125 185.78515625 C-384.42518815 193.23584034 -375.14839694 200.78261388 -366.07299805 208.57348633 C-361.9570104 212.56816269 -361.9570104 212.56816269 -356.74536133 213.86889648 C-353.21801782 212.7525056 -350.21614187 211.00638464 -347.07421875 209.09765625 C-346.41476761 208.70468857 -345.75531647 208.31172089 -345.07588196 207.90684509 C-342.94203349 206.63256588 -340.81472383 205.34780208 -338.6875 204.0625 C-337.2105728 203.17725647 -335.73335827 202.29249215 -334.25585938 201.40820312 C-326.26579487 196.61553134 -318.33112769 191.74510626 -310.4609375 186.7578125 C-303.92479903 182.67312392 -297.25940995 178.7971652 -290.625 174.875 C-279.59060716 168.35070768 -268.62487632 161.73432751 -257.72460938 154.98754883 C-249.56489536 149.94414846 -241.35647739 144.98744171 -233.125 140.0625 C-223.29198066 134.17913015 -213.4767813 128.26838689 -203.6875 122.3125 C-193.96456657 116.39774652 -184.2187243 110.52261738 -174.4543457 104.67651367 C-165.79742178 99.48896503 -157.16897287 94.25541639 -148.54541016 89.01269531 C-141.08362194 84.47634744 -133.61137026 79.95922609 -126.1171875 75.4765625 C-120.270761 71.9687066 -114.45086542 68.41685253 -108.625 64.875 C-99.60007192 59.38845868 -90.56176951 53.92558283 -81.5 48.5 C-72.71168847 43.23693548 -63.94194191 37.94414305 -55.1875 32.625 C-54.61 32.27415344 -54.0325 31.92330688 -53.4375 31.56182861 C-47.39919324 27.892976 -41.36281677 24.22095441 -35.32722473 20.54763794 C-32.82069495 19.02243489 -30.31365948 17.49806431 -27.80654907 15.97381592 C-26.06607635 14.9151903 -24.32635808 13.85532459 -22.58666992 12.79541016 C-1.54187649 0 -1.54187649 0 0 0 Z " fill="#FFFFFF" transform="translate(502,284)"/>
<path d="M0 0 C0.40507002 3.09053426 0.55095395 5.9209846 0 9 C-2.37036929 11.14010484 -3.94985986 12.16159854 -6.75 13.5 C-8.30707813 14.32754874 -9.86157739 15.15996027 -11.4140625 15.99609375 C-12.29094727 16.45870605 -13.16783203 16.92131836 -14.07128906 17.39794922 C-19.24708414 20.22919024 -24.25309092 23.34521003 -29.27966309 26.4309082 C-32.3400604 28.30759558 -35.40867562 30.17074727 -38.4765625 32.03515625 C-39.35090942 32.56709091 -39.35090942 32.56709091 -40.24291992 33.10977173 C-44.31919743 35.58921374 -48.4050177 38.05160149 -52.5 40.5 C-57.01057206 43.19704308 -61.50766688 45.91467159 -65.99609375 48.6484375 C-68.30981069 50.05743179 -70.62356907 51.46635724 -72.9375 52.875 C-73.52760864 53.23425568 -74.11771729 53.59351135 -74.72570801 53.96365356 C-84.69157485 60.02691281 -94.71027988 65.9974889 -104.75 71.9375 C-113.29382241 76.99291129 -121.82263598 82.05827663 -130.20898438 87.37255859 C-135.99893853 91.03127014 -141.87238646 94.54677451 -147.75 98.0625 C-156.7894332 103.46968715 -165.81125759 108.9045572 -174.8125 114.375 C-175.3938974 114.72820312 -175.9752948 115.08140625 -176.5743103 115.4453125 C-182.48145696 119.03398999 -188.38666592 122.62583345 -194.28915405 126.22216797 C-197.21295537 128.00334304 -200.13751208 129.78327429 -203.0625 131.5625 C-203.63901306 131.91322571 -204.21552612 132.26395142 -204.80950928 132.62530518 C-213.48149235 137.89766459 -222.19677737 143.09252706 -230.9375 148.25 C-239.62827679 153.37840279 -248.25251502 158.59445891 -256.81396484 163.93554688 C-264.98182211 169.01859468 -273.23127305 173.96238939 -281.48672485 178.90115356 C-290.84734163 184.50123013 -300.18359715 190.13919552 -309.5 195.8125 C-320.46848489 202.49007608 -331.47412722 209.10353608 -342.57910156 215.55224609 C-344.30703545 216.58559099 -346.00993772 217.66127311 -347.69433594 218.76416016 C-348.57637695 219.33312012 -349.45841797 219.90208008 -350.3671875 220.48828125 C-351.1597998 221.01591064 -351.95241211 221.54354004 -352.76904297 222.0871582 C-355 223 -355 223 -357.13891602 222.27246094 C-359.5628579 220.61516261 -361.80808299 218.82005441 -364.0625 216.9375 C-365.03574219 216.12925781 -366.00898438 215.32101562 -367.01171875 214.48828125 C-367.99785156 213.66714844 -368.98398437 212.84601563 -370 212 C-371.79048939 210.54022149 -373.58213843 209.08186408 -375.375 207.625 C-378.8449744 204.78995708 -382.27971779 201.91966294 -385.68798828 199.01123047 C-391.2784932 194.24073348 -396.96586106 189.63487953 -402.76879883 185.12548828 C-407.31914714 181.57421215 -411.72467673 177.87746372 -416.10766602 174.12280273 C-419.97170852 170.82887444 -423.92557453 167.67397108 -427.9375 164.5625 C-433.35358851 160.3593271 -438.57380138 155.97491754 -443.74975586 151.48071289 C-447.74348465 148.03069721 -451.82808268 144.73156192 -456 141.5 C-461.45137253 137.27539622 -466.719163 132.87843328 -471.93237305 128.36401367 C-476.54876388 124.36892114 -481.24446053 120.48806483 -485.98828125 116.64453125 C-488 115 -488 115 -489 114 C-489.07179964 112.48071962 -489.08392007 110.95832518 -489.0625 109.4375 C-489.05347656 108.61121094 -489.04445313 107.78492188 -489.03515625 106.93359375 C-489.02355469 106.29550781 -489.01195312 105.65742188 -489 105 C-484.63709238 107.7953959 -480.66794435 110.85535901 -476.75 114.25 C-472.95985944 117.49540159 -469.16069527 120.71206865 -465.25 123.8125 C-460.64165785 127.4660959 -456.09889462 131.19530803 -451.5625 134.9375 C-450.8197583 135.55012695 -450.0770166 136.16275391 -449.31176758 136.79394531 C-447.86046626 137.99115267 -446.40921151 139.18841649 -444.95800781 140.38574219 C-439.4025918 144.96584327 -433.82831211 149.52264272 -428.23046875 154.05078125 C-421.26297724 159.69045335 -414.34041234 165.36974134 -407.51660156 171.18261719 C-403.55713761 174.54853252 -399.52816573 177.81368438 -395.45703125 181.04296875 C-390.05030937 185.34943562 -384.72602483 189.75887346 -379.38671875 194.1484375 C-377.60822574 195.60811917 -375.82422492 197.06111237 -374.03515625 198.5078125 C-371.7185847 200.4099652 -369.44673712 202.34078884 -367.18359375 204.3046875 C-365.85182622 205.43260313 -364.51979682 206.56020962 -363.1875 207.6875 C-362.56520508 208.24155518 -361.94291016 208.79561035 -361.30175781 209.36645508 C-359.57695122 210.80618305 -358.0172433 212.01054042 -356 213 C-351.02302392 212.34632694 -347.02775007 209.32860236 -342.875 206.625 C-341.45157684 205.71709226 -340.02704554 204.81092013 -338.6015625 203.90625 C-337.85293945 203.43058594 -337.10431641 202.95492187 -336.33300781 202.46484375 C-332.34123184 199.95849634 -328.29624148 197.5420865 -324.25 195.125 C-323.4048584 194.6194458 -322.5597168 194.1138916 -321.68896484 193.59301758 C-319.96936921 192.5649383 -318.24947979 191.53735025 -316.52929688 190.51025391 C-304.49211866 183.32280367 -292.48259358 176.09057747 -280.5 168.8125 C-279.90771606 168.45280121 -279.31543213 168.09310242 -278.7052002 167.72250366 C-272.73991091 164.09939591 -266.77610173 160.47388131 -260.81658936 156.84127808 C-257.96177048 155.10135012 -255.1061193 153.36279236 -252.25 151.625 C-251.68365845 151.2803772 -251.11731689 150.93575439 -250.53381348 150.58068848 C-240.12373204 144.25062197 -229.64888955 138.03232619 -219.16357422 131.82791138 C-211.1984817 127.11298761 -203.2610172 122.36720803 -195.43945312 117.41650391 C-189.76205266 113.82693171 -184.00268855 110.3803938 -178.23632812 106.93603516 C-171.63813607 102.99167839 -165.06732616 99.00380874 -158.50219727 95.00469971 C-147.4626664 88.28092246 -136.37460492 81.64454708 -125.25 75.0625 C-116.59826397 69.94336194 -107.96196375 64.81276668 -99.46801758 59.43408203 C-91.07784237 54.12755503 -82.5241343 49.08724693 -74 44 C-57.61892047 34.21433839 -41.32689739 24.28090946 -25.02403259 14.36572266 C-22.43199682 12.78945755 -19.83960552 11.21377775 -17.24716187 9.63818359 C-15.40114625 8.51589565 -13.55567217 7.39272087 -11.71020508 6.26953125 C-10.59669678 5.59277344 -9.48318848 4.91601562 -8.3359375 4.21875 C-7.35157715 3.61998047 -6.3672168 3.02121094 -5.35302734 2.40429688 C-1.3244089 0 -1.3244089 0 0 0 Z " fill="#FFFFFF" transform="translate(502,222)"/>
<path d="M0 0 C2.22135208 2.6021553 3.074617 3.73151101 2.875 7.125 C1.863999 9.29143071 0.8579428 10.49935389 -1 12 C-3.88211302 12.96070434 -5.69850044 13.10581883 -8.6875 13.0625 C-9.89986328 13.04896484 -9.89986328 13.04896484 -11.13671875 13.03515625 C-11.75160156 13.02355469 -12.36648438 13.01195313 -13 13 C-13.495 11.515 -13.495 11.515 -14 10 C-12.01432292 9.51171875 -10.02864583 9.0234375 -8.04296875 8.53515625 C-6.34316798 8.08989295 -4.66698046 7.55566015 -3 7 C-3 5.68 -3 4.36 -3 3 C-10.18882577 -1.20891439 -18.95313188 0.76758974 -26.625 2.6875 C-32.64372047 4.43367199 -38.8361453 6.33940078 -44 10 C-44.33 10.99 -44.66 11.98 -45 13 C-45.66 13.33 -46.32 13.66 -47 14 C-47.30990209 17.54433503 -47.30990209 17.54433503 -45.875 20.6875 C-39.49658153 25.15239293 -31.41414719 24.98246956 -24 24 C-15.62569032 22.3564005 -7.42483198 19.92325102 0.78607178 17.61816406 C4.97422364 16.44876528 9.16923444 15.30428925 13.36328125 14.15625 C18.72478077 12.6877555 24.08568228 11.21730919 29.44287109 9.7331543 C30.69972969 9.38522827 30.69972969 9.38522827 31.98197937 9.03027344 C33.54976794 8.59597307 35.1173415 8.1608954 36.68464661 7.72485352 C54.62056532 2.75855582 54.62056532 2.75855582 59.875 5.5 C60.57625 5.995 61.2775 6.49 62 7 C61.67 8.32 61.34 9.64 61 11 C59.70255859 11.22042969 59.70255859 11.22042969 58.37890625 11.4453125 C37.66766344 15.13390641 17.31922198 20.60121483 -3 26 C-1.82566406 26.01417969 -0.65132813 26.02835938 0.55859375 26.04296875 C12.10251524 26.33364737 22.1025678 28.2186887 33 32 C33 33.32 33 34.64 33 36 C32.25951416 36.19110352 31.51902832 36.38220703 30.75610352 36.57910156 C27.35610694 37.46141779 23.95934068 38.35561422 20.5625 39.25 C19.39783203 39.55035156 18.23316406 39.85070313 17.03320312 40.16015625 C11.03485104 41.74845229 5.38101303 43.47103554 -0.20898438 46.18359375 C-2.42270942 47.19268543 -4.59195871 47.68928499 -7 48 C-6.505 50.475 -6.505 50.475 -6 53 C6.27807043 53.39185331 17.04258566 51.47553425 28.7734375 47.90234375 C38.24117995 45.25458527 48.66163301 44.61886712 58 48 C60.52320041 49.48359852 61.95317017 50.79965793 64 53 C64.625 55.5625 64.625 55.5625 64 58 C61.58072969 61.1104904 59.79996729 62.26423822 56 63 C46.12101521 63.68536069 38.10688923 63.85894497 29.1953125 59.0625 C26.90001245 57.76243409 26.90001245 57.76243409 23.625 57.9375 C20.57913137 59.17035159 18.47925934 60.86508223 16 63 C15.34 63 14.68 63 14 63 C13.58274322 66.37400578 13.58274322 66.37400578 14 70 C21.04495222 75.55095869 31.90932277 74.40129743 40.390625 73.4453125 C43.83300969 72.85783966 47.07486295 71.90340274 50.39453125 70.83203125 C62.44098286 66.98511342 72.45279153 65.29083406 84.3125 70.4375 C88.7804266 73.03513174 88.7804266 73.03513174 90 75 C90.24268058 77.71802253 90.13474648 80.26015497 90 83 C84.99067246 86.00559652 81.67276511 86.29341888 76 86 C75.67 85.01 75.34 84.02 75 83 C75.54269531 82.80664062 76.08539063 82.61328125 76.64453125 82.4140625 C77.71767578 82.02347656 77.71767578 82.02347656 78.8125 81.625 C79.52019531 81.36976562 80.22789062 81.11453125 80.95703125 80.8515625 C83.24773359 79.9734231 83.24773359 79.9734231 86 78 C85.67 77.01 85.34 76.02 85 75 C75.77476544 71.07436827 65.16681709 73.98278131 56 77 C48.45409223 80.15249432 48.45409223 80.15249432 42 85 C41.75787127 86.98128508 41.75787127 86.98128508 41.875 89.125 C41.91625 90.40375 41.9575 91.6825 42 93 C51.34975176 98.76320677 60.60438906 97.13504307 70.90600586 94.734375 C76.13208681 93.44875261 81.25028307 91.92747655 86.37837219 90.29833984 C95.01115209 87.55965497 103.69672528 85.12196485 112.45874023 82.83251953 C114.72553319 82.24005946 116.99077264 81.64191578 119.25585938 81.04296875 C120.71606084 80.65853118 122.1763442 80.27440452 123.63671875 79.890625 C124.30442795 79.71460754 124.97213715 79.53859009 125.66007996 79.35723877 C130.81910484 78.01166849 135.72012031 76.84908587 141.0625 76.75 C141.89910156 76.72421875 142.73570312 76.6984375 143.59765625 76.671875 C146.48383858 77.06608527 147.83718815 78.10192032 150 80 C149.67 80.99 149.34 81.98 149 83 C147.88109375 83.13535156 146.7621875 83.27070312 145.609375 83.41015625 C134.98236936 84.80001516 124.64746131 86.89517525 114.25 89.5 C113.06116211 89.79656494 111.87232422 90.09312988 110.64746094 90.39868164 C105.79821314 91.64124124 101.03297869 92.90330567 96.359375 94.70703125 C93.24869135 95.90428275 91.28046126 96.30754324 88 96 C89.20257485 97.43653768 89.20257485 97.43653768 92.71875 97.02734375 C94.31251252 96.99806953 95.90626199 96.96807909 97.5 96.9375 C107.68036031 96.87182668 114.62010026 97.70478187 123.34765625 103.26953125 C125 105 125 105 125.24609375 107.69921875 C125.16488281 108.45847656 125.08367187 109.21773438 125 110 C120.32701093 112.75138609 116.45984769 113.48037192 111.125 113.375 C110.41609619 113.36992432 109.70719238 113.36484863 108.97680664 113.35961914 C105.1778518 113.26824136 101.93841037 112.93002957 98.4375 111.4375 C94.3149826 109.71353818 92.25805061 109.71455076 88 111 C85.41702219 113.18991597 83.51584156 114.96831688 82 118 C81.9310528 119.37342831 81.91532292 120.75002102 81.9375 122.125 C81.9684375 124.043125 81.9684375 124.043125 82 126 C91.60202285 128.09405817 99.96688299 126.81651322 109.33691406 124.33520508 C114.81081584 122.90540792 114.81081584 122.90540792 117 124 C117 124.66 117 125.32 117 126 C105.01431226 130.46275607 92.22001279 134.26061185 79.6875 129.3125 C76.27328572 127.44901663 74.31587363 125.77217106 73 122 C72.2971451 118.27486904 72.3083581 116.06942949 74.39453125 112.84375 C78.13209525 108.34890179 81.08795159 105.39268668 87.0625 104.79296875 C91.09045891 104.60926116 93.63573531 104.83810458 97.375 106.5 C102.30460029 108.5398346 106.73690527 108.25696846 112 108 C112.33 106.68 112.66 105.36 113 104 C101.4855845 99.51132955 86.4173502 97.75723319 74.515625 101.85546875 C72.58523527 102.80252085 70.8029824 103.83156238 69 105 C68.071875 105.515625 67.14375 106.03125 66.1875 106.5625 C63.96378832 107.88931087 63.96378832 107.88931087 62.4375 109.75 C61 111 61 111 59.125 110.9375 C56.35314066 109.71462088 54.28606913 107.96855953 52 106 C52.495 104.515 52.495 104.515 53 103 C56.5625 101.8125 56.5625 101.8125 60 101 C59.67 100.67 59.34 100.34 59 100 C57.31165845 100.03263929 55.62397426 100.10166843 53.9375 100.1875 C47.4837405 100.22935317 43.39364472 98.72319296 38.3984375 94.71484375 C35.51967717 91.82804219 34.65513039 89.31143366 34.5 85.375 C34.69466235 81.76766331 35.30998372 79.57793226 38 77 C37.44828125 77.15984375 36.8965625 77.3196875 36.328125 77.484375 C28.09541778 79.30772626 20.45146885 78.20531799 13.24609375 73.96875 C9.4561627 71.26557026 7.84410176 68.43958297 6.96875 64.00390625 C7.02222331 60.57493037 8.8578009 58.52023424 11 56 C10.175 56.165 9.35 56.33 8.5 56.5 C1.06690655 57.56187049 -6.02783819 57.74995817 -12.4375 53.3125 C-14.67937479 49.99452532 -14.62906197 47.91416338 -14 44 C-7.96154399 36.71220827 4.48440783 35.32283153 13.2265625 33.7109375 C14.14179688 33.47632813 15.05703125 33.24171875 16 33 C16.495 32.01 16.495 32.01 17 31 C2.27914064 29.25391267 -12.69892088 29.63189773 -27.0546875 33.4765625 C-31.03262625 34.18351713 -34.3739398 33.8130301 -38 32 C-37.67 30.68 -37.34 29.36 -37 28 C-37.87011719 27.76216797 -37.87011719 27.76216797 -38.7578125 27.51953125 C-45.5638801 25.48669588 -49.96136102 23.05795847 -54 17 C-54.52673824 13.04946318 -54.17779616 11.312676 -52.1875 7.8125 C-47.16350228 1.35307437 -41.66036929 -0.31795224 -34 -3 C-33.31679688 -3.25265625 -32.63359375 -3.5053125 -31.9296875 -3.765625 C-21.6940271 -6.97861257 -8.65946196 -6.63046669 0 0 Z M30 55 C32.56852614 58.85278921 34.05435952 58.83155976 38.5 59.8125 C46.53470275 61.39634284 52.77398678 60.84188485 60 57 C59.67 55.68 59.34 54.36 59 53 C49.32232995 50.17639744 39.47099265 52.43366651 30 55 Z " fill="#FFFFFF" transform="translate(348,23)"/>
<path d="M0 0 C0.82905773 3.24855272 0.97190802 5.7687214 0 9 C-3.60421201 12.41962973 -7.91525012 14.63585853 -12.25 17 C-13.53100263 17.73164374 -14.80994772 18.46690054 -16.08691406 19.20556641 C-18.73903227 20.73605394 -21.39932287 22.2506381 -24.06640625 23.75488281 C-30.05044517 27.14752116 -35.88966843 30.77393603 -41.75 34.375 C-52.72466703 41.06931979 -63.77826499 47.62852853 -74.84146118 54.17510986 C-82.68729596 58.81962133 -90.50697732 63.49193174 -98.20898438 68.37255859 C-105.04863132 72.69457818 -112.00431821 76.82246904 -118.94775391 80.97485352 C-127.08945977 85.84637039 -135.20630971 90.75718489 -143.3125 95.6875 C-151.97693823 100.95639531 -160.6540044 106.2029245 -169.35595703 111.40966797 C-176.48498833 115.68016396 -183.58693106 119.99492386 -190.6875 124.3125 C-200.62209819 130.35322948 -210.57847827 136.35593943 -220.55419922 142.32861328 C-229.09593726 147.44716152 -237.60925468 152.6115207 -246.11767578 157.78515625 C-254.17119737 162.68176758 -262.23861704 167.55392787 -270.32739258 172.39208984 C-275.23935852 175.33375316 -280.13921265 178.29485536 -285.03125 181.26953125 C-285.64718018 181.64399384 -286.26311035 182.01845642 -286.89770508 182.40426636 C-289.93543836 184.25154862 -292.97224597 186.10033138 -296.0078125 187.95117188 C-317.44781339 201 -317.44781339 201 -319 201 C-319.93225667 197.71552165 -320.07838723 195.26476694 -319 192 C-314.955104 188.42460086 -310.24696718 186.06451881 -305.5 183.5625 C-304.1402766 182.81280144 -302.78261021 182.05936028 -301.42700195 181.30224609 C-298.7794367 179.82618313 -296.12497188 178.36417764 -293.46337891 176.91357422 C-289.60789864 174.7833575 -285.88050845 172.5217727 -282.1875 170.125 C-274.34499895 165.11952509 -266.32026538 160.42155978 -258.3125 155.6875 C-248.33966237 149.79037126 -238.41290309 143.83730593 -228.58349609 137.70288086 C-221.04527118 133.00539366 -213.43225179 128.43780053 -205.80932617 123.87939453 C-197.64426921 118.99427486 -189.50477584 114.06849456 -181.375 109.125 C-173.31002588 104.22156468 -165.23693054 99.33335567 -157.13671875 94.48828125 C-151.17961926 90.91402155 -145.24900696 87.29581367 -139.3125 83.6875 C-127.12377525 76.27976676 -114.9041416 68.92509475 -102.6640625 61.60253906 C-91.3614779 54.83882461 -80.08893259 48.0268566 -68.83325195 41.18545532 C-62.3983674 37.27427474 -55.96247822 33.36547768 -49.5 29.5 C-42.27342914 25.17590432 -35.07402806 20.80722806 -27.875 16.4375 C-27.28485107 16.07946289 -26.69470215 15.72142578 -26.08666992 15.35253906 C-18.16435047 10.54865165 -18.16435047 10.54865165 -10.27441406 5.69189453 C-9.37361618 5.13369774 -9.37361618 5.13369774 -8.45462036 4.56422424 C-6.78642751 3.52918884 -5.11996934 2.49135912 -3.45361328 1.45336914 C-1 0 -1 0 0 0 Z " fill="#FFFFFF" transform="translate(482,258)"/>
<path d="M0 0 C3.77597776 1.61175351 5.97546372 3.58721651 8.91796875 6.44140625 C9.97042909 7.44245094 11.02516218 8.441111 12.08203125 9.4375 C12.60829102 9.93491699 13.13455078 10.43233398 13.67675781 10.94482422 C17.67628901 14.63640911 21.9867975 17.97538379 26.23046875 21.37890625 C38.55536348 31.35186101 50.57697638 41.6291541 62.23046875 52.37890625 C61.57046875 53.69890625 60.91046875 55.01890625 60.23046875 56.37890625 C54.18187757 56.08608489 51.60018199 53.44921462 47.54296875 49.37890625 C46.31487962 48.19284361 45.08438375 47.0092682 43.8515625 45.828125 C43.24425293 45.24337402 42.63694336 44.65862305 42.01123047 44.05615234 C34.40448332 36.41658165 34.40448332 36.41658165 25.23046875 31.37890625 C22.62187889 32.34137419 22.62187889 32.34137419 20.10546875 34.06640625 C19.23664063 34.60652344 18.3678125 35.14664063 17.47265625 35.703125 C15.00791371 37.3504735 15.00791371 37.3504735 13.23046875 40.37890625 C12.42609375 40.21390625 11.62171875 40.04890625 10.79296875 39.87890625 C8.50202445 39.34698786 8.50202445 39.34698786 7.23046875 39.37890625 C7.3905542 39.95382812 7.55063965 40.52875 7.71557617 41.12109375 C10.13872538 51.74664325 9.06091116 64.66955545 4.23046875 74.37890625 C3.26869936 75.74007391 2.27930536 77.08363811 1.23046875 78.37890625 C-0.41953125 78.04890625 -2.06953125 77.71890625 -3.76953125 77.37890625 C-3.2871805 74.64558532 -2.68305242 72.1302796 -1.76953125 69.50390625 C0.76471497 61.5843868 0.85415049 53.49731494 -0.76953125 45.37890625 C-4.48447135 46.03758357 -7.16705674 47.68046326 -10.33203125 49.69140625 C-11.28207031 50.28566406 -12.23210937 50.87992187 -13.2109375 51.4921875 C-15.6350722 53.27975553 -17.12979179 54.8778895 -18.76953125 57.37890625 C-21.14453125 57.12890625 -21.14453125 57.12890625 -23.76953125 56.37890625 C-24.93359375 54.33203125 -24.93359375 54.33203125 -25.76953125 52.37890625 C-18.73529333 46.89220067 -11.30269075 42.14003234 -3.76953125 37.37890625 C-5.08953125 34.73890625 -6.40953125 32.09890625 -7.76953125 29.37890625 C-11.70704715 30.83643976 -15.214653 32.68988174 -18.83203125 34.81640625 C-19.85425781 35.41324219 -20.87648438 36.01007813 -21.9296875 36.625 C-27.45862332 40.00231952 -27.45862332 40.00231952 -30.76953125 45.37890625 C-34.03907327 44.81519211 -35.59529008 43.87928359 -37.76953125 41.37890625 C-36.25390444 37.23465912 -33.74822317 35.78705863 -30.0625 33.5234375 C-29.50009109 33.17633224 -28.93768219 32.82922699 -28.35823059 32.47160339 C-27.17009646 31.74159043 -25.97890613 31.01653131 -24.78491211 30.29614258 C-22.96605674 29.19686109 -21.15944056 28.07935176 -19.35351562 26.95898438 C-9.11673604 20.69758618 -9.11673604 20.69758618 -4.76953125 20.37890625 C0.07269484 24.01057581 2.51084143 29.06695332 5.23046875 34.37890625 C8.98397385 32.54500193 12.58636795 30.48332299 16.20703125 28.40234375 C18.23046875 27.37890625 18.23046875 27.37890625 20.23046875 27.37890625 C17.4182722 23.6271052 14.45494411 20.7368443 10.79296875 17.81640625 C9.86613281 17.07261719 8.93929687 16.32882813 7.984375 15.5625 C7.07558594 14.84191406 6.16679687 14.12132812 5.23046875 13.37890625 C3.56357903 12.04585178 1.89684033 10.71260836 0.23046875 9.37890625 C-0.75953125 10.03890625 -1.74953125 10.69890625 -2.76953125 11.37890625 C-5.45703125 11.00390625 -5.45703125 11.00390625 -7.76953125 10.37890625 C-7.32076509 8.73043856 -6.86022637 7.0851717 -6.39453125 5.44140625 C-6.01167969 4.06662109 -6.01167969 4.06662109 -5.62109375 2.6640625 C-4.3546408 -0.73444656 -3.47992198 -0.78040563 0 0 Z " fill="#FFFFFF" transform="translate(285.76953125,237.62109375)"/>
<path d="M0 0 C4.71346154 1.48846154 4.71346154 1.48846154 6.1640625 4.078125 C6.43992187 4.71234375 6.71578125 5.3465625 7 6 C0.42166655 11.14047146 -6.5079298 15.52148328 -13.63671875 19.8515625 C-14.45785156 20.35945313 -15.27898437 20.86734375 -16.125 21.390625 C-16.87007812 21.84469727 -17.61515625 22.29876953 -18.3828125 22.76660156 C-18.91648438 23.17362305 -19.45015625 23.58064453 -20 24 C-20 24.66 -20 25.32 -20 26 C-17.79102858 26.83660856 -17.79102858 26.83660856 -15 27 C-11.97083327 25.5598909 -11.97083327 25.5598909 -9 23.5 C-3.66493907 19.96143918 -3.66493907 19.96143918 -0.23828125 20.16015625 C2.57317951 21.21506735 3.51682029 22.42395103 5 25 C5 25.66 5 26.32 5 27 C5.78375 26.938125 6.5675 26.87625 7.375 26.8125 C8.674375 26.9053125 8.674375 26.9053125 10 27 C10.99 28.485 10.99 28.485 12 30 C3.41193343 36.372472 -5.74713864 41.66511357 -15 47 C-0.21016035 48.21274429 10.18650535 41.11448403 21 32 C21.99 32.99 22.98 33.98 24 35 C16.92321622 44.6716045 7.18686171 49.33167949 -4 53 C-4.63035156 53.20882812 -5.26070312 53.41765625 -5.91015625 53.6328125 C-9.77401063 54.31169533 -13.68994011 54.03590719 -17.59960938 53.9609375 C-20.69729296 53.92402369 -23.03411518 54.01137173 -26 55 C-28.1875 53.8125 -28.1875 53.8125 -30 52 C-30 50.68 -30 49.36 -30 48 C-27.9375 46.4296875 -27.9375 46.4296875 -25 44.875 C-23.92234375 44.27945313 -22.8446875 43.68390625 -21.734375 43.0703125 C-21.14076172 42.74450195 -20.54714844 42.41869141 -19.93554688 42.08300781 C-16.32009523 40.0600331 -12.78323317 37.91244615 -9.25 35.75 C-8.53457031 35.3257373 -7.81914062 34.90147461 -7.08203125 34.46435547 C-5.33474492 33.39188611 -3.65913896 32.2043496 -2 31 C-2 30.01 -2 29.02 -2 28 C-7.58752897 29.0871626 -12.21672579 32.40174429 -17.0625 35.25 C-18.57166992 36.11044922 -18.57166992 36.11044922 -20.11132812 36.98828125 C-21.07619141 37.55417969 -22.04105469 38.12007813 -23.03515625 38.703125 C-23.9156665 39.21520508 -24.79617676 39.72728516 -25.70336914 40.25488281 C-28.29123117 42.22129482 -29.5142727 44.13525677 -31 47 C-35.75 46.125 -35.75 46.125 -38 45 C-38 43.68 -38 42.36 -38 41 C-35.83829268 39.42622956 -33.8275722 38.14766422 -31.5 36.875 C-29.2846621 35.63606883 -27.1459486 34.361852 -25 33 C-25 32.34 -25 31.68 -25 31 C-26.75634644 29.77525336 -26.75634644 29.77525336 -29 29 C-31.12013479 29.66726356 -31.12013479 29.66726356 -33.15234375 31.0703125 C-33.92900391 31.555 -34.70566406 32.0396875 -35.50585938 32.5390625 C-36.70952148 33.32410156 -36.70952148 33.32410156 -37.9375 34.125 C-38.73607422 34.62515625 -39.53464844 35.1253125 -40.35742188 35.640625 C-48.62382033 40.46485389 -48.62382033 40.46485389 -54 48 C-58.75 47.25 -58.75 47.25 -61 45 C-61.15625 42.7109375 -61.15625 42.7109375 -60 40 C-57.38331651 37.84287155 -54.45648731 36.27061319 -51.5 34.625 C-49.67669441 33.570985 -47.85379717 32.51626338 -46.03125 31.4609375 C-45.05671875 30.90374023 -44.0821875 30.34654297 -43.078125 29.77246094 C-37.67965766 26.66388917 -32.34252547 23.45342207 -27 20.25 C-25.98744141 19.64881348 -24.97488281 19.04762695 -23.93164062 18.42822266 C-18.71846768 15.31579178 -13.54867775 12.13679487 -8.4375 8.859375 C-7.46683594 8.24030273 -6.49617188 7.62123047 -5.49609375 6.98339844 C-2.85460214 4.88446672 -1.53091434 2.98064382 0 0 Z " fill="#FFFFFF" transform="translate(179,342)"/>
<path d="M0 0 C2.54296875 1.75 2.54296875 1.75 5.1875 4 C6.15042969 4.8146875 7.11335938 5.629375 8.10546875 6.46875 C11.59041173 9.51631148 15.02772916 12.61159917 18.4453125 15.734375 C22.03567931 18.91849236 25.78458983 21.89165963 29.5546875 24.859375 C32.05372868 27.04703405 34.00782649 29.34994593 36 32 C34 35 34 35 31.6953125 35.46484375 C27.99014507 34.82583661 26.54520894 33.18089892 23.875 30.5625 C22.90983736 29.63823269 21.94232517 28.71641356 20.97265625 27.796875 C20.48168457 27.32830078 19.99071289 26.85972656 19.48486328 26.37695312 C16.32866994 23.45013128 12.93323844 20.80767597 9.5703125 18.125 C7.14935133 16.12347587 4.93677755 14.00191084 2.6875 11.8125 C0.89270058 10.09784939 0.89270058 10.09784939 -1 9 C-4.46236232 9.34426035 -4.46236232 9.34426035 -7 11 C-3.29327004 14.80391014 0.57871229 18.31183136 4.625 21.75 C5.23166504 22.26788086 5.83833008 22.78576172 6.46337891 23.31933594 C11.91287656 27.95690268 17.43452046 32.50218388 23 37 C22.67 38.32 22.34 39.64 22 41 C20.3359375 41.78125 20.3359375 41.78125 18 42 C15.06560217 39.83687894 12.51283719 37.39510408 9.8515625 34.90625 C7.12532733 32.68649881 7.12532733 32.68649881 3.78125 33.0859375 C0.86919286 33.81136047 0.86919286 33.81136047 -1.125 36.125 C-1.74375 36.74375 -2.3625 37.3625 -3 38 C-5.125 38 -5.125 38 -7 37 C-7.66 35.68 -8.32 34.36 -9 33 C-6.36 31.02 -3.72 29.04 -1 27 C-5.8724968 21.4451157 -5.8724968 21.4451157 -12.37890625 18.69140625 C-14.8003777 18.98082637 -14.8003777 18.98082637 -18 20 C-17.0361991 11.64705882 -17.0361991 11.64705882 -15 9 C-13.7934375 8.87625 -13.7934375 8.87625 -12.5625 8.75 C-11.716875 8.5025 -10.87125 8.255 -10 8 C-8.96309052 5.97890526 -8.31014394 3.99190556 -7.67578125 1.8125 C-6.23325239 -2.05647914 -3.31460858 -0.99774035 0 0 Z " fill="#FFFFFF" transform="translate(218,281)"/>
<path d="M0 0 C-3.78525203 3.19627543 -7.77572672 5.73634904 -12.0625 8.1875 C-19.87038678 12.71828108 -27.60102782 17.36978979 -35.3125 22.0625 C-36.52172297 22.79786068 -37.73095154 23.53321215 -38.94018555 24.26855469 C-42.01990739 26.14183429 -45.09898442 28.01617139 -48.17791748 29.89074707 C-53.40889336 33.07527645 -58.64132601 36.25740697 -63.875 39.4375 C-64.7349205 39.96006882 -64.7349205 39.96006882 -65.61221313 40.49319458 C-75.3434235 46.40498616 -85.10122471 52.27171286 -94.87078857 58.11987305 C-101.89706218 62.32593375 -108.91357129 66.54686237 -115.90625 70.80859375 C-116.54836426 71.19971344 -117.19047852 71.59083313 -117.85205078 71.99380493 C-120.91773126 73.86169782 -123.98167552 75.73234764 -127.04296875 77.60742188 C-128.13222656 78.27193359 -129.22148437 78.93644531 -130.34375 79.62109375 C-131.29443359 80.2030249 -132.24511719 80.78495605 -133.22460938 81.38452148 C-136.09376046 83.05457539 -139.01597415 84.54680143 -142 86 C-142.23706055 83.68041992 -142.23706055 83.68041992 -142 81 C-140.42895508 79.4387207 -140.42895508 79.4387207 -138.20703125 78.11328125 C-136.96687256 77.3545874 -136.96687256 77.3545874 -135.70166016 76.58056641 C-134.8101123 76.05897949 -133.91856445 75.53739258 -133 75 C-132.13036621 74.46938965 -131.26073242 73.9387793 -130.36474609 73.39208984 C-127.48384122 71.63735219 -124.58735062 69.91073391 -121.6875 68.1875 C-119.46183746 66.85874624 -117.23659268 65.52929255 -115.01171875 64.19921875 C-114.43888153 63.8569223 -113.86604431 63.51462585 -113.27584839 63.16195679 C-106.83074697 59.30725256 -100.41547146 55.40374075 -94 51.5 C-85.18397709 46.13759243 -76.35325511 40.8008098 -67.5 35.5 C-59.1096667 30.47533373 -50.73480455 25.42611411 -42.37564087 20.349823 C-40.58199379 19.26182463 -38.78666752 18.17664586 -36.9909668 17.09204102 C-31.80015663 13.95209775 -26.63311992 10.78804737 -21.546875 7.48046875 C-20.73532959 6.96000977 -19.92378418 6.43955078 -19.08764648 5.90332031 C-17.63587223 4.96797826 -16.19400229 4.01695402 -14.76586914 3.04589844 C-9.80153041 -0.13037586 -5.83502631 -0.53733705 0 0 Z " fill="#FFFFFF" transform="translate(155,11)"/>
<path d="M0 0 C4.75 0.75 4.75 0.75 7 3 C6.82250977 4.97753906 6.82250977 4.97753906 6 7 C3.66506471 8.74326442 1.42222418 10.25867972 -1.0625 11.75 C-1.72572266 12.16121094 -2.38894531 12.57242187 -3.07226562 12.99609375 C-4.70818186 14.00824336 -6.35324932 15.00557507 -8 16 C-4.40258189 17.19913937 -3.97930233 16.75318077 -0.6875 15.1875 C5.57315444 12.5543424 12.18864245 11.00831668 19 11 C23.69318289 13.17395393 23.69318289 13.17395393 24.8125 16.1875 C24.874375 16.785625 24.93625 17.38375 25 18 C22 19 22 19 19.125 18.4375 C13.1151574 17.43371473 5.24899841 18.2778533 -0.14453125 21.13671875 C-2.48928332 22.2276455 -3.61576153 21.85151374 -6 21 C-6.20753906 21.75023437 -6.41507813 22.50046875 -6.62890625 23.2734375 C-9.29417154 32.12791715 -13.46331692 42.28235935 -22 47 C-24.8125 46.75 -24.8125 46.75 -27 46 C-25.64581884 43.0778196 -24.07203863 40.69814496 -22.0625 38.1875 C-17.97581725 32.81500731 -15.82758053 27.78616033 -15 21 C-19.29561003 23.05396887 -23.21426479 25.087896 -27 28 C-27.66 28 -28.32 28 -29 28 C-29.99 30.475 -29.99 30.475 -31 33 C-33.96175123 32.38722388 -35.38058783 31.74627478 -38 30 C-37.84399414 28.22998047 -37.84399414 28.22998047 -37 26 C-34.62670898 24.17236328 -34.62670898 24.17236328 -31.49609375 22.3203125 C-30.93938492 21.98506561 -30.38267609 21.64981873 -29.80909729 21.30441284 C-28.02533919 20.23275393 -26.23222588 19.17816934 -24.4375 18.125 C-10.84582363 10.69159727 -10.84582363 10.69159727 0 0 Z " fill="#FFFFFF" transform="translate(145,332)"/>
<path d="M0 0 C2.375 0.9375 2.375 0.9375 3.625 3.125 C4.40546651 6.0517494 4.95650625 8.93829482 5.375 11.9375 C6.674375 11.875625 7.97375 11.81375 9.3125 11.75 C14.32990808 11.76587787 18.9338885 12.49774776 23.375 14.9375 C24.9375 17.625 24.9375 17.625 25.375 19.9375 C23.6875 21.125 23.6875 21.125 21.375 21.9375 C20.694375 21.525 20.01375 21.1125 19.3125 20.6875 C14.96362256 18.0966794 10.33251167 17.67548335 5.375 16.9375 C5.36082031 17.50855469 5.34664062 18.07960938 5.33203125 18.66796875 C4.86683565 26.57629402 2.9144071 35.53813466 -2.15234375 41.8359375 C-3.625 42.9375 -3.625 42.9375 -5.8125 42.625 C-6.410625 42.398125 -7.00875 42.17125 -7.625 41.9375 C-7.16615518 38.35851037 -6.38093842 35.17596434 -5.125 31.8125 C-2.40760282 23.92671994 -2.28055 16.10605228 -3.625 7.9375 C-4.54023438 8.515 -5.45546875 9.0925 -6.3984375 9.6875 C-7.59881205 10.4377341 -8.79934092 11.18772133 -10 11.9375 C-10.60328125 12.3190625 -11.2065625 12.700625 -11.828125 13.09375 C-16.3984375 15.9375 -16.3984375 15.9375 -18.625 15.9375 C-18.955 17.5875 -19.285 19.2375 -19.625 20.9375 C-22.86708567 20.58700425 -24.24027704 20.37528819 -26.4375 17.875 C-26.829375 17.235625 -27.22125 16.59625 -27.625 15.9375 C-24.05552525 11.85538791 -19.77230848 9.47148634 -15.125 6.8125 C-14.36574219 6.37035156 -13.60648438 5.92820312 -12.82421875 5.47265625 C-3.24998597 -0.07738062 -3.24998597 -0.07738062 0 0 Z " fill="#FFFFFF" transform="translate(202.625,308.0625)"/>
<path d="M0 0 C6.8703927 4.29399544 11.51791615 12.47066614 14 20 C13.65234375 22.86328125 13.65234375 22.86328125 13 25 C11.21484375 24.828125 11.21484375 24.828125 9 24 C7.25390625 21.671875 7.25390625 21.671875 5.5625 18.75 C3.03269569 14.55728553 0.66841996 11.223763 -3 8 C-6.45557778 9.30134205 -9.56046103 10.81182371 -12.72265625 12.71484375 C-13.59083984 13.23626953 -14.45902344 13.75769531 -15.35351562 14.29492188 C-16.24748047 14.83697266 -17.14144531 15.37902344 -18.0625 15.9375 C-18.96033203 16.47568359 -19.85816406 17.01386719 -20.78320312 17.56835938 C-28.7928812 21.92256499 -28.7928812 21.92256499 -34 29 C-37.68754757 28.50168276 -39.60490662 27.89932357 -42 25 C-40.54653733 21.30118125 -38.83628066 19.98487695 -35.4140625 18.046875 C-34.48851562 17.51344482 -33.56296875 16.98001465 -32.609375 16.43041992 C-31.62453125 15.87588135 -30.6396875 15.32134277 -29.625 14.75 C-22.30370497 10.55314329 -15.22815769 6.31350073 -8.4375 1.29296875 C-5.34997314 -0.34480591 -3.45051374 -0.47261026 0 0 Z " fill="#FFFFFF" transform="translate(259,316)"/>
<path d="M0 0 C-0.14453125 1.828125 -0.14453125 1.828125 -1 4 C-3.51171875 5.484375 -3.51171875 5.484375 -6.6875 6.75 C-8.24017578 7.39195312 -8.24017578 7.39195312 -9.82421875 8.046875 C-13.1063662 9.03192294 -15.59601533 9.33114586 -19 9 C-19.66 8.34 -20.32 7.68 -21 7 C-20.625 4.875 -20.625 4.875 -20 3 C-17.60530271 2.49395076 -15.20948283 1.99500483 -12.8125 1.5 C-12.13896484 1.35691406 -11.46542969 1.21382813 -10.77148438 1.06640625 C-7.12490207 0.31930158 -3.72351043 -0.17352282 0 0 Z " fill="#FFFFFF" transform="translate(194,306)"/>
<path d="M0 0 C-1.04546734 3.14989193 -1.87354819 3.93289256 -4.86328125 5.51953125 C-6.57064453 6.15955078 -6.57064453 6.15955078 -8.3125 6.8125 C-9.44300781 7.25207031 -10.57351562 7.69164062 -11.73828125 8.14453125 C-15.04043068 9.01060397 -16.77920941 8.98496973 -20 8 C-20.33 6.35 -20.66 4.7 -21 3 C-18.14970604 1.57485302 -15.33835948 1.38290946 -12.1875 0.9375 C-10.96417969 0.76089844 -9.74085937 0.58429688 -8.48046875 0.40234375 C-5.60312602 0.06972164 -2.88946671 -0.08255619 0 0 Z " fill="#FFFFFF" transform="translate(133,339)"/>
</svg>
